<?xml version="1.0" encoding="UTF-8" standalone="no"?>
<!-- Created with Inkscape (http://www.inkscape.org/) -->

<svg
   xmlns:svg="http://www.w3.org/2000/svg"
   xmlns="http://www.w3.org/2000/svg"
   version="1.1"
   width="760"
   height="154"
   id="svg2">
  <defs
     id="defs6" />
  <g
     id="g2818">
    <path
       d="m 210.5,138.12889 c -3.56393,-1.62798 -4.31609,-2.63401 -6.89942,-9.22803 -1.59468,-4.07047 -3.11359,-9.77167 -3.37536,-12.66932 -0.26177,-2.89765 -0.87075,-5.51246 -1.35328,-5.81069 -0.48254,-0.29822 -6.61363,-0.65485 -13.62464,-0.79251 -11.09748,-0.2179 -13.32691,-0.55131 -17.22561,-2.57611 -3.30356,-1.71572 -6.55672,-2.41697 -12.40147,-2.67327 -8.62515,-0.37822 -10.99622,-1.41868 -16.27504,-7.141686 l -3.15482,-3.42028 -8.06868,2.091503 C 114.01346,99.565521 103.57624,98.44094 97.780207,92.639289 93.57164,88.426646 89.566254,80.037681 88.743428,77.755984 88.352428,76.671739 88.294686,75.939126 85.699254,76.190945 75.332784,77.91096 74.384177,76.578152 68.818046,80.5 68.191554,81.875 67.371213,83 66.995065,83 66.618918,83 63.878649,86.439447 60.90558,90.643216 55.219278,98.683358 47.049211,106.11694 41.223497,108.55108 30.335658,113.10031 19.877332,106.31607 18.399918,93.74559 17.838636,88.969952 18.032955,87.967045 19.876799,86.123201 23.796178,82.203822 27.516372,84.086354 29.514155,91 c 1.005184,3.478598 3.431108,6 5.772799,6 2.645584,0 8.46766,-3.677255 9.182395,-5.799651 C 44.784283,90.265157 46.58863,88.375 48.479011,87 54.723265,82.458136 58.304734,69.765251 54.176822,66.806704 53.174074,66.088017 51.084126,61.999691 49.532492,57.721535 47.027847,50.815739 46.782669,49.09925 47.347124,42.421763 48.059205,33.997851 49.064811,31.431593 52.02141,30.493205 61.223558,27.572556 72.917464,41.442411 73.526616,56 l 0.271987,6.5 4.850699,-0.259342 c 2.924333,-0.156349 5.926728,-1.049895 7.560205,-2.25 C 87.699737,58.895796 89.30261,58 89.771449,58 c 0.468839,0 1.807581,-1.291905 2.974982,-2.8709 2.743876,-3.71129 6.560932,-4.461768 9.786899,-1.92422 2.79041,2.194937 2.98532,3.827246 1.23736,10.362686 -1.08805,4.068088 -1.03522,4.704894 0.45978,5.541537 0.92901,0.519898 1.99234,2.620535 2.36297,4.668083 1.01037,5.581942 3.1498,9.120267 5.93756,9.81995 3.04907,0.765269 11.20372,-0.358893 12.00471,-1.654914 C 124.85599,81.424 127.29957,81 129.9659,81 c 4.58363,0 5.07291,-0.268794 8.97676,-4.931518 3.04139,-3.632608 5.37058,-5.326095 8.84312,-6.429589 8.92571,-2.836385 10.91116,-2.883521 20.39504,-0.484192 7.04629,1.847964 6.6852,2.427563 10.95348,5.266203 2.8769,6.272916 -0.99949,14.623826 -1.44129,19.579096 5.4124,1.735613 6.39538,2.947855 17.0802,-0.610618 3.35772,-1.544109 3.47373,-3.948728 0.14856,-3.079174 -1.01889,0.266444 -2.73005,-0.256853 -3.80259,-1.162882 -1.07254,-0.906029 -2.00256,-3.242472 -2.21333,-4.367335 -0.9669,-3.931694 -0.44557,-5.325371 0.75149,-8.856191 1.0576,-1.353892 4.27249,-3.886077 10.27043,-2.224601 3.77294,1.832633 4.527,4.362163 9.2233,3.292485 6.46054,-1.47152 10.19461,-4.542494 13.99776,-8.205904 1.16419,-1.121416 3.28466,-1.68401 6.13178,-1.626862 2.3937,0.04805 5.30963,-0.51058 6.47984,-1.241392 1.81034,-1.130572 2.39702,-1.088885 3.93361,0.279497 0.99327,0.884536 4.19948,2.312025 7.12492,3.172197 6.5964,1.939552 13.49259,6.336869 15.02427,9.580145 3.43344,7.270149 -1.17707,14.65116 -11.34325,18.159552 -2.2,0.75923 -4.29934,1.797624 -4.66519,2.307543 -0.36586,0.50992 -5.6092,0.82134 -11.65187,0.69205 -6.93115,-0.148304 -11.22926,0.15741 -11.64383,0.82821 -0.36143,0.5848 -1.94844,1.06328 -3.5267,1.06328 -5.13822,0 -6.30787,2.30723 -5.53728,10.92273 0.37275,4.1675 1.43083,9.15227 2.3513,11.07727 1.56725,3.27764 1.9404,3.48019 5.87366,3.18811 5.16887,-0.38384 8.30485,1.16704 8.2846,4.09707 -0.0235,3.39865 -1.04301,4.36511 -6.98839,6.6248 -6.64986,2.52745 -7.41326,2.54083 -12.4963,0.21891 z m 158.5,0.19178 c -1.375,-0.26355 -4.9569,-2.13272 -7.95978,-4.15371 -4.26618,-2.87122 -5.63141,-4.43887 -6.24483,-7.17075 -1.10873,-4.93768 -0.12768,-9.44786 2.81607,-12.9463 3.2759,-3.89319 2.35282,-5.31285 -2.95013,-4.53717 -2.70413,0.39554 -5.73712,0.0465 -8.66133,-0.99682 -2.89288,-1.03212 -5.84774,-1.37812 -8.27371,-0.96881 -4.64328,0.78341 -13.19488,-2.05607 -15.67043,-5.20322 -3.1909,-4.714029 -2.49639,-4.301001 -3.97025,-7.239607 -1.78838,-5.709834 -1.24318,-8.008209 -10.244,-3.12342 C 304.1623,91.761693 302,93.364471 302,94.512633 c -2.81236,5.548477 -2.84736,7.772297 -4.47944,13.047737 C 295.45007,114.80039 291.92429,120 289.08542,120 286.54978,120 283,115.78087 283,112.76709 c 0,-1.4322 1.62503,-7.70319 3.61118,-13.935544 1.98615,-6.23235 3.74038,-12.288118 3.8983,-13.457261 0.15792,-1.169143 0.81935,-3.120184 1.46984,-4.335646 0.6505,-1.215462 0.92126,-2.471391 0.6017,-2.790952 -0.79519,-3.899853 -1.83755,-5.201941 -1.58102,-8.521342 -0.0451,-5.418951 0.44367,-5.297798 0.0741,-10.047437 0.30549,-1.086723 0.94199,-2.528908 1.22063,-4.178908 1.97528,-11.697032 2.93586,-15.217726 5.2114,-19.100631 2.89859,-4.946077 5.09978,-5.528251 9.37962,-2.48074 4.27999,3.047624 6.99767,17.571953 4.66382,24.925268 -0.91434,2.880824 0.4033,4.991737 1.6856,2.700398 0.65077,-1.162865 1.69246,-1.528296 3.24545,-1.138521 2.02413,0.508024 2.41643,0.06024 3.41235,-3.894914 0.85372,-3.390441 1.86163,-4.849706 4.17644,-6.046745 2.83122,-1.464076 3.28109,-1.442785 6.24088,0.295358 3.16847,1.860685 3.1898,1.927233 3.20029,9.984074 0.006,4.460997 0.34331,8.443652 0.75,8.850345 -3.47426,7.05198 -4.32859,29.86022 8.73942,14.080422 2.21387,-1.93457 4.6957,-5.972345 7.53337,-6.274889 1.40534,-0.149834 4.86029,0.885377 7.67767,2.300467 4.41115,2.215594 -1.16655,11.565148 0.62738,10.452121 3.04034,-1.549681 5.56248,-4.117492 9.13091,-6.282547 1.76668,-2.266088 5.13186,-3.70856 6.51223,-4.854158 6.09144,-3.852331 8.26069,-4.548221 11.98645,-9.326146 C 389.51144,66.866444 393.27438,64.309573 398.5,66 c 4.27017,1.030572 6.96994,1.025448 7.4129,-4.094789 0.41748,-2.977855 0.58756,-4.178299 0.59021,-11.643187 0.003,-9.026369 1.91319,-20.240994 4.04695,-23.762024 0.6666,-1.1 1.47109,-3.125851 1.78775,-4.501892 0.89571,-3.892269 10.17859,-13.6834024 14.2457,-15.0256674 3.14021,-1.0363649 4.09632,-0.89276 8.2346,1.2368113 11.52617,5.9314041 12.14825,17.8498321 1.81443,34.7628901 -2.66782,4.36635 -7.94881,13.298182 -9.02412,14.975756 -5.63682,5.084581 -3.01248,12.275037 1.81259,11.723529 4.83018,-0.381299 15.30511,-4.424313 20.18423,-6.758753 0.83009,-0.68891 4.0073,-1.387402 7.06049,-1.552206 6.29041,-0.339541 10.69971,2.475451 11.7312,5.725364 -3.22455,5.215274 1.58138,7.992928 2.09702,8.088894 3.20146,0 8.13132,-3.024911 13.85681,-9.829976 3.13684,-3.728316 5.65942,-5.681047 10.9768,-6.122006 5.37115,-0.445417 5.78945,-0.30575 9.15045,3.055251 C 506.73375,64.53375 508,66.751932 508,68.447749 508,70.956782 512.13077,76 514.18586,76 c 0.4916,0 2.56339,-0.838115 4.60398,-1.862477 5.08946,-2.554877 13.7302,-3.588593 16.09518,-1.925511 2.99127,2.557331 4.69275,5.314943 4.04581,11.095827 C 537.86887,83.585546 537,84.353035 537,85.013369 c 0,0.762594 0.63845,0.926883 1.75,0.45032 0.9625,-0.412659 3.70209,-1.427182 6.08799,-2.254494 2.38589,-0.827313 4.57154,-2.112828 4.85699,-2.8567 C 549.98043,79.608623 550.75598,79 551.41843,79 c 0.66244,0 2.09026,-0.825259 3.17292,-1.833909 1.08266,-1.00865 4.1177,-2.128495 6.74455,-2.488544 4.00493,-0.548937 5.26277,-0.294807 7.79041,1.573962 2.91753,2.157019 2.99287,2.413592 2.34583,7.988544 L 570.80363,90 l 2.84818,-0.0318 c 1.56651,-0.01749 3.7217,-0.692492 4.78932,-1.5 1.06762,-0.807512 2.94281,-1.4682 4.16709,-1.4682 1.22429,0 4.40078,-0.939567 7.05887,-2.087927 6.20445,-2.680463 12.06384,-2.157714 16.36306,1.45984 C 607.74796,87.817361 610.30331,89 611.70869,89 c 1.40538,0 4.00867,0.898269 5.78509,1.996154 2.70869,1.674063 3.7362,1.819634 6.36803,0.902174 C 625.58781,91.29664 627,90.388724 627,89.880736 c 0,-0.507987 1.05968,-1.406436 2.35484,-1.996552 1.88182,-0.857412 3.1795,-0.652231 6.46017,1.021439 2.25792,1.151907 4.5818,4.062362 5.38284,4.062362 l 2.03257,2.39844 3.20575,1.042813 2.94558,-1.024217 1.84301,-1.977905 c 5.44756,-3.839793 11.91775,-4.907856 16.51518,-2.726233 2.72893,1.294962 3.53796,1.333372 4.86619,0.231035 2.29057,-1.901004 8.38121,-1.982487 10.37404,1.391676 4.3661,7.392472 5.47799,8.855536 13.34639,6.529739 2.44362,-0.722304 6.03182,0.697834 7.74152,1.550737 2.43039,1.21244 5.10721,1.42442 12.27023,0.97168 l 9.16169,-0.57906 3.72308,3.36165 c 2.57307,2.32328 4.50685,5.492 6.26045,10.25847 1.39555,3.79324 3.65766,8.01711 5.02691,9.38636 1.36926,1.36926 2.48956,3.55319 2.48956,4.85319 0,3.24843 -3.39874,6.36364 -6.94284,6.36364 -6.37644,0 -12.16947,-5.77888 -14.01225,-13.97803 -0.77724,-3.45821 -4.85394,-4.73514 -9.85158,-3.08577 -3.73503,1.23267 -9.49839,1.05701 -15.48331,-0.47191 -6.75076,1.17368 -7.14152,1.92542 -13.01904,3.50027 -4.85138,-0.041 -7.69408,-1.40739 -10.57673,-5.08382 -1.73139,-2.20815 -2.72552,-2.57497 -6.33399,-2.33711 -2.35414,0.15518 -7.12443,-0.4562 -10.60064,-1.35862 -5.75613,-1.49429 -6.56434,-1.50076 -9.05291,-0.0725 -1.75709,1.00843 -4.29788,1.42236 -7.11768,1.15955 -2.41184,-0.22478 -4.32904,-1.1291 -5.82092,-1.30393 -1.24788,-0.14624 -5.70001,3.57369 -9.38121,4.44374 -7.29584,1.72437 -10.47661,1.16912 -14.41094,-2.51565 -1.15722,-1.08382 -4.44748,-2.34103 -7.3117,-2.7938 -4.34012,-0.68608 -5.87827,-1.54238 -9.23319,-5.14021 -4.65769,-4.99491 -6.93558,-5.42876 -14.57609,-2.77618 -8.64288,3.00058 -13.80601,2.46745 -20.56422,-2.12342 -5.6853,-3.862039 -8.42502,-4.374547 -11.17678,-2.09079 -2.03871,1.69197 -13.7267,5.26116 -17.61073,5.37782 -4.38296,0.13165 -8.42098,-2.38402 -11.09125,-6.90979 -1.72263,-2.919631 -2.2985,-3.260535 -3.98404,-2.35846 -1.30771,0.699864 -3.43492,0.742134 -6.32524,0.125688 -2.3952,-0.510845 -4.91654,-0.581696 -5.60299,-0.157447 -1.57175,0.971393 -7.27435,0.205798 -12.18997,-1.636547 -5.09668,-1.910211 -7.65349,-1.777029 -8.51198,0.443383 C 480.01569,99.55189 469.99806,107 464.53984,107 463.14293,107 462,107.41968 462,107.93261 c 0,1.58373 -4.01238,2.302 -5.58208,0.99927 -1.18028,-0.97954 -1.97967,-0.9692 -3.88455,0.0503 -1.31915,0.70599 -3.10381,1.01294 -3.96591,0.68212 -0.8621,-0.33082 -1.56746,-0.16561 -1.56746,0.36712 0,2.09002 -3.97484,0.91707 -4.54136,-1.34013 -0.43202,-1.72132 -1.74328,-2.62003 -5.15357,-3.53214 -4.99396,-1.33568 -6.27608,-0.92203 -4.73155,1.52655 1.13538,1.79995 -2.28513,10.00018 -5.17,12.39441 -2.21029,1.83438 -8.61644,1.58463 -11.52,-0.44911 -3.35797,-2.352 -5.78402,-2.02288 -6.9095,0.93737 -1.56951,4.12813 -5.90316,9.23077 -9.83087,11.5753 -2.00373,1.19608 -4.76815,3.18687 -6.14315,4.42398 -2.11345,1.9015 -3.9689,2.32528 -12,2.74076 -5.225,0.27032 -10.625,0.27585 -12,0.0123 l 0,-4e-5 z m 15.92597,-14.6297 C 389.48471,121.43428 391.38074,119 388.57971,119 c -0.87283,0 -3.26616,-0.9 -5.31853,-2 -4.91806,-2.63592 -11.90159,-2.70833 -12.71932,-0.13188 -0.32611,1.02746 -1.48507,2.6755 -2.57548,3.66231 -1.85538,1.67909 -1.87588,1.91209 -0.31949,3.63188 2.39812,2.64989 11.47404,2.40232 17.27908,-0.47134 z M 404,104.96482 c 0,-1.83822 -3.06017,-5.773334 -6.57375,-8.453273 l -3.42485,-2.612261 -4.49429,3.756764 c -2.47186,2.06622 -4.15968,4.03563 -3.7507,4.37648 0.74723,0.62275 7.01422,2.56298 10.74359,3.32618 3.95082,0.80851 7.5,0.62211 7.5,-0.39389 z M 426.73315,38.743158 C 430.56451,32.186258 432.3507,23 429.79428,23 c -2.99245,0 -7.34931,7.671417 -9.50047,16.728107 -1.8177,7.652799 1.70714,7.113647 6.43934,-0.984949 z"
       id="path2832"
       style="fill:#eaebfa" />
    <path
       d="m 211.22515,137.54635 c -4.56283,-2.04912 -9.11071,-12.2562 -10.04465,-22.5438 -0.65758,-7.24342 -0.76744,-7.49415 -3.1808,-7.2593 -1.37484,0.13379 -7.52572,0.27416 -13.66864,0.31192 -9.53509,0.0586 -11.87565,-0.25763 -16,-2.16191 -3.22208,-1.48769 -7.79701,-2.45277 -13.73653,-2.89772 -8.54339,-0.64002 -9.03581,-0.80937 -12.11133,-4.165346 -1.76323,-1.924012 -3.41422,-4.123252 -3.66887,-4.887199 -0.38402,-1.152068 -2.523,-0.987913 -12.53985,0.962367 C 112.78772,97.531232 107.90532,97.292002 101.5,93.691453 97.303679,91.332624 94.382332,86.96615 91.503566,78.75 c -0.915365,-2.6125 -1.965634,-4.749923 -2.333933,-4.749829 -0.368298,9.5e-5 -4.145744,0.665342 -8.394325,1.478327 -4.248581,0.812986 -8.376287,1.228115 -9.172681,0.92251 C 69.871491,75.736709 68.168159,77.529026 62.955386,85.5 51.196512,103.48077 38.549612,111.82086 28.713384,108.08113 21.654568,105.39737 16.603412,92.181229 20.702003,87.119683 c 2.784975,-3.439299 5.943722,-2.149078 7.32844,2.993373 1.861981,6.914872 6.084612,9.444048 11.285298,6.759413 5.850322,-3.019982 20.745865,-21.143358 20.656481,-25.132698 -0.01528,-0.681874 -1.37232,-2.559314 -3.015651,-4.172088 -1.64333,-1.612775 -4.21833,-5.437775 -5.722222,-8.5 C 48.839764,54.191828 48.506083,52.356938 48.548958,44.300889 48.602253,34.286913 50.068806,31 54.483543,31 c 3.02485,0 10.575381,5.260934 13.21826,9.210002 3.070571,4.588135 5.35987,14.060901 4.649912,19.240613 -0.542553,3.958353 -0.403199,4.306389 1.900625,4.746793 4.231873,0.808973 12.482729,-2.428418 17.706248,-6.947408 5.194918,-4.494246 7.370726,-5.072959 10.412432,-2.76946 2.03638,1.542154 1.90577,4.468589 -0.45596,10.2166 -1.13155,2.753996 -1.06285,3.992712 0.49569,8.936955 0.99512,3.156899 3.07519,7.005686 4.62236,8.552861 3.40855,3.408545 8.68507,3.706484 20.68847,1.16817 7.19317,-1.521114 8.16197,-2.03754 12.87609,-6.863716 4.02007,-4.115627 6.17455,-5.477181 10.19194,-6.440938 6.553,-1.572041 16.89751,-0.505301 22.49169,2.319377 4.14761,2.094255 4.22375,2.226935 4.51841,7.873566 0.21309,4.08359 -0.27588,7.044611 -1.69195,10.245884 l -1.99166,4.502469 2.10377,1.1259 c 2.87715,1.539806 23.10479,0.687704 25.2132,-1.062122 2.60465,-2.16167 1.82055,-3.420537 -4.03696,-6.481288 -6.62077,-3.459581 -8.22135,-6.076352 -6.24562,-10.210934 1.92052,-4.019066 4.9597,-4.077908 12.44078,-0.240867 l 6.40632,3.285796 3.7512,-3.651864 c 5.15081,-5.0144 13.9688,-8.886627 20.50925,-9.006181 10.35742,-0.189326 22.91742,5.446627 26.35233,11.824883 C 265.46513,89.589821 252.76006,98 234.28695,98 c -8.47427,0 -19.85929,2.82121 -21.56845,5.34468 -1.13708,1.6788 0.25595,16.56001 1.93025,20.62027 1.83556,4.45131 2.9217,5.05567 7.86762,4.37775 7.44932,-1.02104 8.92457,4.75678 2.042,7.99753 -5.43975,2.56138 -9.49798,2.92849 -13.33322,1.20612 z M 155,90 c 0,-0.55 -0.675,-1 -1.5,-1 -0.825,0 -1.5,0.45 -1.5,1 0,0.55 0.675,1 1.5,1 0.825,0 1.5,-0.45 1.5,-1 z m 92.5889,-5.44135 c 1.41575,-1.035216 0.83413,-1.466349 -4.05109,-3.00294 -3.63311,-1.142752 -7.46873,-1.624631 -10.56415,-1.327201 -5.12727,0.492666 -10.44352,3.202222 -9.44687,4.814831 0.87021,1.408038 22.05731,0.981261 24.06211,-0.48469 z m 122.4242,52.75307 c -1.3678,-0.2821 -3.67153,-1.35644 -5.1194,-2.38741 -1.44787,-1.03097 -3.7936,-2.31595 -5.21273,-2.8555 -1.83745,-0.6986 -2.8908,-2.13436 -3.65906,-4.98744 -1.38664,-5.14958 -0.60299,-8.07028 3.57542,-13.3259 1.86079,-2.34051 3.38763,-4.78497 3.39296,-5.43215 0.0148,-1.79269 -3.07439,-2.09095 -7.20051,-0.69518 -3.87371,1.31038 -8.61756,0.5896 -11.41843,-1.73491 -1.1107,-0.9218 -2.35554,-0.91493 -5.51081,0.0304 -3.60877,1.08121 -4.69776,0.96884 -9.50002,-0.98025 -4.8107,-1.95252 -5.7031,-2.7914 -7.89226,-7.418909 C 320.11072,94.654876 319,92.042233 319,91.718608 c 0,-0.323625 -0.43891,-1.742833 -0.97536,-3.153795 l -0.97536,-2.565387 -3.27464,1.996549 c -1.88542,1.149544 -5.04304,1.998135 -7.44308,2.000287 -3.62842,0.0033 -4.42483,0.424779 -6.14747,3.253738 -1.08846,1.7875 -2.69128,6.742662 -3.56181,11.01147 -2.45237,12.02567 -5.28115,16.06183 -9.627,13.73601 -1.02291,-0.54745 -2.15392,-1.92196 -2.51337,-3.05447 -0.74804,-2.35686 0.92755,-10.3464 3.55332,-16.94301 6.80591,-17.098166 7.18956,-18.527142 6.06319,-22.583971 -3.06254,-11.030397 1.47612,-38.562908 6.91067,-41.921648 0.57072,-0.352724 2.37716,-0.0484 4.0143,0.676266 2.38214,1.054437 3.29798,2.417207 4.58565,6.823468 1.7448,5.970501 1.53691,11.145722 -1.04317,25.968961 -0.81018,4.654693 -1.30285,8.63328 -1.09482,8.841307 0.20803,0.208026 1.26185,0.09778 2.34182,-0.244991 C 313.00955,74.544807 321,61.369609 321,57.113302 321,54.333392 323.96949,51 326.44592,51 c 1.28288,0 3.38447,0.851827 4.6702,1.892948 l 2.3377,1.892948 -1.70344,7.357052 c -3.2691,14.119119 -3.05815,26.97785 0.50096,30.536965 2.28764,2.287636 4.62588,0.930706 10.74866,-6.237658 6.08773,-7.127332 7.88793,-8.153701 10.94863,-6.242266 3.09208,1.931036 3.43664,4.440565 1.12357,8.183195 C 352.45051,92.625159 352.30089,97 354.77749,97 c 2.64347,0 6.00355,-2.692883 8.7104,-6.98082 2.75243,-4.360121 12.69347,-10.849796 17.91893,-11.697772 2.61716,-0.424707 4.23515,-4.77e-4 6.70458,1.757918 2.09262,1.490074 3.06145,1.800459 2.71309,0.869196 -2.93041,-7.833927 -3.2003,-9.129181 -2.22458,-10.676025 2.17205,-3.44342 4.12991,-3.837895 9.52967,-1.92007 5.04501,1.79183 5.20351,1.789144 7.76031,-0.13151 2.6096,-1.960317 2.61004,-1.963145 2.23845,-14.499442 C 407.70249,39.354432 408.70323,33.761378 413.53576,23.5 416.9552,16.239158 422.6129,9.8286992 427.08633,8.1465155 432.98837,5.9271221 443,14.375638 443,21.575584 c 0,7.080148 -10.10757,28.037222 -17.67586,36.649205 -3.80661,4.331557 -4.67337,7.107045 -3.52112,11.275211 0.70353,2.544964 1.38398,3.046831 4.48611,3.308753 2.20724,0.186363 5.55043,-0.550736 8.43383,-1.859472 2.62737,-1.192525 9.68684,-3.698346 15.68771,-5.568491 10.09174,-3.145048 11.08625,-3.285216 13.25,-1.867474 2.9402,1.926496 3.05624,5.871132 0.23092,7.850063 -2.5859,1.811238 -1.88994,3.086652 3.06317,5.61354 2.84005,1.448885 4.55301,1.731903 6.68215,1.104039 5.99109,-1.766718 8.03426,-3.283685 9.3117,-6.91355 1.64057,-4.661656 4.67539,-8.051908 8.76927,-9.796287 4.72792,-2.014538 7.37535,-1.654634 11.20815,1.523691 3.28593,2.724823 3.3729,2.969288 2.12678,5.977701 -1.37103,3.309963 -7.27932,9.105422 -9.33761,9.15929 -0.66836,0.01749 -0.33696,0.695954 0.73645,1.507693 2.67553,2.023303 10.04974,1.011992 19.37391,-2.656968 C 519.85462,75.297138 523.99594,74 525.02851,74 c 1.03256,0 2.98122,-0.502942 4.33036,-1.117649 2.00427,-0.913207 2.92174,-0.776015 5.01563,0.75 C 538.12795,76.367848 537.95396,81.18453 534,84 c -5.80687,4.134854 -2.87369,7.821108 3.66896,4.610946 11.7155,-5.748232 15.09059,-7.436378 19.65068,-9.82885 C 566.58365,73.921685 569.5,75.508991 569.5,85.411598 l 0,6.088402 3,-0.152874 c 3.83343,-0.195345 17.06239,-3.98722 21.07747,-6.041527 2.56502,-1.312385 3.68641,-1.373614 6.73436,-0.367699 2.01129,0.663785 4.54721,2.338734 5.63537,3.722108 1.58468,2.014597 2.54629,2.390513 4.83125,1.888652 2.09136,-0.45934 3.59743,-0.04083 5.64275,1.568017 2.32028,1.825133 2.70096,2.743128 2.26122,5.452906 -0.67042,4.131347 1.14179,6.731567 4.37361,6.275387 2.18218,-0.30802 2.41516,-0.77344 2.17502,-4.34497 -0.33016,-4.910461 2.75948,-10.5 5.80391,-10.5 3.29923,0 7.69941,2.741745 9.62109,5.99488 2.58779,4.380782 7.91948,3.760797 14.67068,-1.705951 3.88749,-3.147881 8.92522,-3.055375 11.49461,0.211071 2.35649,2.995797 2.59848,3.026683 4.8897,0.624079 3.31956,-3.480933 6.00768,-3.559206 9.2962,-0.270687 2.34947,2.34947 2.99276,3.873188 2.99276,7.088738 0,3.96044 0.091,4.0743 2.75,3.44103 1.5125,-0.36022 3.92549,-1.32918 5.3622,-2.15326 3.23366,-1.85477 10.76636,-0.95857 14.00837,1.66665 2.12292,1.71903 2.40001,1.71335 7.2931,-0.14955 10.41077,-3.963604 16.98642,-0.373 20.49973,11.19379 1.38111,4.547 2.99401,7.53712 5.05723,9.37545 3.54225,3.15617 3.78027,4.93286 1.02937,7.68376 -2.55924,2.55924 -4.57576,2.50184 -9.36045,-0.26645 -3.19889,-1.85079 -4.20698,-3.26176 -5.88259,-8.23355 -1.11218,-3.3 -2.46757,-6.5625 -3.01199,-7.25 -1.31817,-1.6646 -6.6343,-1.52822 -9.74497,0.25 -3.63502,2.07796 -9.28832,1.84765 -12.27287,-0.5 -3.24235,-2.55044 -4.15797,-2.50765 -10.22713,0.47787 -2.75,1.35277 -6.17179,2.47366 -7.60398,2.49086 -2.66251,0.032 -6.22062,-2.67467 -8.89602,-6.76718 -1.41928,-2.17105 -1.76905,-2.2332 -6.5,-1.15496 -5.04886,1.1507 -7.6348,0.65969 -11.61839,-2.20607 -1.26085,-0.90704 -2.69685,-0.77381 -6.5,0.60306 -5.27709,1.91049 -7.40149,2.09953 -11.58661,1.03106 -1.95935,-0.50022 -3.40975,-0.13624 -5.2616,1.32043 -3.27846,2.57883 -11.57319,4.57474 -15.46222,3.72056 -1.65942,-0.36446 -4.15798,-2.01851 -5.55238,-3.67566 -2.27961,-2.70916 -2.93201,-2.94595 -6.46983,-2.34824 -3.27121,0.55266 -4.23926,0.30624 -5.74177,-1.46159 -9.39422,-11.053102 -9.2356,-10.994388 -18.3072,-6.77651 -5.44465,2.53152 -13.83798,2.73777 -17.36508,0.42673 -1.34078,-0.87851 -3.21827,-3.640986 -4.17221,-6.138828 C 557.50878,93.043689 556.4944,91 556.20853,91 c -0.28586,0 -2.04193,1.161021 -3.90237,2.580048 -4.99999,3.813683 -15.85878,8.461192 -21.26551,9.101542 -4.22976,0.50095 -5.08877,0.24722 -8.01516,-2.36751 -2.23217,-1.994439 -3.48361,-4.186236 -3.9233,-6.871336 -0.59913,-3.658767 -0.86014,-3.920674 -3.62391,-3.636326 -1.63805,0.16853 -5.60213,0.95603 -8.80905,1.75 -9.6833,2.397393 -17.00484,1.363224 -20.54167,-2.901514 -2.47136,-2.979976 -4.811,-2.036032 -5.49081,2.215305 -0.41531,2.597164 -1.86946,5.158846 -4.42079,7.787818 -5.57074,5.740273 -9.49196,7.249913 -19.29677,7.429093 -13.10175,0.23944 -21.49665,-3.41815 -26.59472,-11.58712 l -2.49631,-4 0.63852,4.5 c 0.35118,2.475 0.89633,6.37836 1.21144,8.67413 C 430.90377,112.60375 427.74445,119 422.10815,119 417.78752,119 410.41372,111.74481 404.18107,101.36128 395.59067,87.049779 396.64458,87.745759 391.51968,93 c -2.41407,2.475 -5.81209,5.582761 -7.55114,6.906136 -3.85385,2.932674 -3.57338,3.128994 8.68417,6.078754 10.73014,2.58219 14.74729,5.69353 14.74729,11.42198 0,3.99511 -4.23507,10.06825 -8.70134,12.4778 -1.64677,0.88843 -4.39315,2.80331 -6.10308,4.25529 -2.67391,2.27054 -4.29747,2.71306 -11.60227,3.16232 -4.67132,0.28729 -9.61242,0.29154 -10.98021,0.009 z m 17.79411,-13.49202 c 6.74417,-3.18268 7.43792,-4.88079 2.41379,-5.90834 -1.7212,-0.35202 -4.61256,-1.33718 -6.42523,-2.18924 -1.81267,-0.85206 -5.35243,-1.85208 -7.86614,-2.22227 -4.34985,-0.64059 -4.72377,-0.49834 -7.75,2.94834 -3.22099,3.66851 -4.14028,7.84006 -2.01692,9.15237 4.90832,3.03351 12.82256,2.38235 21.6445,-1.78086 z M 415.32943,91.963573 C 413.39975,85.277105 412.43961,84 409.34237,84 c -2.18269,0 -2.30099,0.214529 -1.24073,2.25 1.67111,3.208192 8.07368,11.90801 8.47112,11.510571 0.18339,-0.183383 -0.37612,-2.792032 -1.24333,-5.796998 z m 49.44645,1.101472 c 1.28797,-0.751048 0.26906,-0.979636 -4.02786,-0.903631 -6.82919,0.120796 -12.63728,-3.065635 -14.7103,-8.070356 -1.33283,-3.217733 -1.82664,-3.493022 -4.45593,-2.484069 -3.89971,1.496458 -0.10545,9.325588 5.8334,12.036707 3.38935,1.547262 14.34093,1.182234 17.36069,-0.578651 z M 428.01565,38.659472 c 2.74139,-5.41229 4.97004,-11.03729 4.95255,-12.5 C 432.93394,23.294591 430.93372,20 429.22865,20 427.9687,20 423,25.724091 423,27.175596 c 0,0.56218 -0.61847,2.440154 -1.37438,4.173275 C 419.35194,36.561906 418,42.472307 418,47.199353 c 0,8.764676 2.20144,6.887614 10.01565,-8.539881 z"
       id="path2830"
       style="fill:#d1d1ed" />
    <path
       d="m 211.11198,136.77034 c -3.70556,-1.86074 -8.17482,-12.78019 -8.99185,-21.96921 -0.37649,-4.23437 -0.92995,-7.94428 -1.2299,-8.24423 -0.29995,-0.29995 -3.66046,-0.15451 -7.4678,0.32319 -9.48523,1.19011 -21.83508,-0.12159 -27.41074,-2.91134 -3.42629,-1.71433 -6.00151,-2.20407 -10.88345,-2.06977 -7.15599,0.19687 -11.53772,-1.936437 -14.58984,-7.103268 -1.97799,-3.348464 -2.48632,-3.372182 -15.1291,-0.705926 -11.70755,2.469021 -18.06791,2.063673 -23.44407,-1.494097 -3.834558,-2.537591 -7.86419,-8.695027 -10.022272,-15.314426 -0.67803,-2.079694 -1.640392,-4.046924 -2.138582,-4.371622 -0.49819,-0.324697 -3.245479,0.03013 -6.105088,0.788506 -2.859608,0.758375 -7.560506,1.510255 -10.446439,1.670843 -5.902365,0.328439 -5.469152,0.09061 -7.524867,4.13101 -2.815221,5.533165 -13.417111,18.966704 -17.603541,22.30525 -7.309893,5.82942 -14.02364,7.56469 -19.541196,5.05072 -3.614701,-1.64696 -7.466286,-7.723519 -8.175586,-12.898428 -0.510469,-3.724276 -0.266921,-4.774933 1.471558,-6.348235 2.592185,-2.345895 4.584643,-1.040006 5.515653,3.615045 1.392698,6.96349 6.889529,9.449688 13.229655,5.983732 C 46.419936,94.039906 61,75.803098 61,71.722351 61,70.966803 59.829895,69.257687 58.399767,67.924314 51.695574,61.673695 47.809847,48.344485 49.706143,38.102575 c 1.415365,-7.644397 5.70978,-8.009549 13.504582,-1.14829 5.41754,4.768709 7.960211,11.306019 8.157858,20.97418 0.124928,6.111041 0.266217,6.464495 2.861388,7.15816 4.98635,1.332804 14.45821,-2.744477 20.528209,-8.836625 2.509864,-2.519022 3.510523,-2.711746 6.30756,-1.214816 2.37648,1.271855 2.45426,3.806509 0.25812,8.411864 -1.411089,2.959085 -1.498156,4.285966 -0.5506,8.391006 1.46732,6.356769 4.90312,12.088407 7.93801,13.24227 3.84642,1.462408 12.14799,1.053384 20.56505,-1.013255 7.09143,-1.741155 8.17345,-2.351016 12.28529,-6.924375 3.76079,-4.182899 5.39866,-5.21416 9.87072,-6.214964 6.70381,-1.500246 18.70329,0.03494 22.50723,2.879519 2.29326,1.714898 2.56007,2.59921 2.55694,8.474677 -0.003,5.194823 -0.46319,7.181752 -2.21245,9.547748 -3.3245,4.496625 -1.28211,5.59732 11.11658,5.990991 17.9503,0.56994 23.85652,-3.662796 13.36946,-9.581326 -7.37054,-4.159675 -8.33119,-5.470506 -6.77046,-9.238435 1.59305,-3.845973 3.90813,-3.842321 10.91014,0.01721 2.97537,1.640037 5.94384,2.981885 6.5966,2.981885 0.65275,0 2.76403,-1.531763 4.69173,-3.403918 7.58556,-7.367001 17.13711,-10.187268 27.30019,-8.060874 7.87772,1.648234 13.49073,4.474596 16.87592,8.497667 3.44118,4.089609 3.31222,6.257694 -0.62421,10.494454 C 253.15571,94.472139 245.28846,97 234.49344,97 c -8.40847,0 -18.96166,2.5045 -22.35389,5.30506 -1.55409,1.28302 -0.8678,14.2652 1.11255,21.0453 1.30321,4.46184 4.67324,7.1255 7.77111,6.14227 3.32272,-1.05459 6.97679,0.26159 6.97679,2.513 0,3.73532 -12.1253,7.1563 -16.88802,4.76471 z M 156,90 c 0,-1.555556 -0.66667,-2 -3,-2 -1.83333,0 -3,0.518519 -3,1.333333 C 150,91.260335 151.01704,92 153.66667,92 155.33333,92 156,91.428571 156,90 z m 91.75,-4.108223 c 4.73516,-1.772583 1.99329,-4.063863 -7.42191,-6.202215 -3.8901,-0.883508 -7.15819,-1.037811 -9.82809,-0.464033 -4.37602,0.940434 -10.39441,5.212732 -9.12869,6.480217 1.89531,1.897959 21.4374,2.035776 26.37869,0.186031 z M 62.026467,50.049453 C 61.423208,48.922254 60.495465,48 59.964816,48 c -1.485957,0 -1.147683,2.762259 0.771475,6.29966 L 62.472582,57.5 62.797941,54.799453 c 0.178948,-1.4853 -0.168216,-3.6228 -0.771474,-4.75 z M 369,135.69616 c -13.99399,-5.2709 -16.0637,-11.82775 -7.35179,-23.29055 2.85997,-3.76304 2.93995,-5.02047 0.40558,-6.37682 -1.41957,-0.75973 -3.15425,-0.63144 -6.41051,0.47409 -4.72268,1.60339 -8.37327,0.95644 -11.72645,-2.07815 -1.3821,-1.25078 -2.00871,-1.22561 -4.85657,0.1951 -2.83869,1.41612 -3.79884,1.45654 -7.28323,0.30658 C 327.17406,103.4073 323,100.41715 323,98.638862 323,97.970074 322.1,95.657586 321,93.5 c -1.1,-2.157586 -2,-4.701177 -2,-5.652425 0,-2.809928 -1.61559,-3.01584 -5.94734,-0.758007 -2.66738,1.390318 -5.29319,1.98442 -7.58709,1.716619 -3.21173,-0.374951 -3.70758,-0.06737 -5.87149,3.642138 -1.29992,2.228421 -3.14016,7.651675 -4.0894,12.051675 -0.94925,4.4 -2.3615,9.0125 -3.13834,10.25 -1.63258,2.60066 -4.55754,2.92947 -6.3924,0.7186 -1.58753,-1.91286 0.95989,-12.34636 6.41381,-26.269138 3.57955,-9.137872 3.62244,-9.413547 2.45272,-15.761857 -2.13989,-11.613589 2.05907,-36.310615 6.46065,-37.999661 0.74469,-0.285765 2.48713,-0.08875 3.87208,0.437808 2.06312,0.784397 2.75081,2.053959 3.80605,7.026451 1.33435,6.287756 1.24886,7.624206 -1.44115,22.53032 C 305.76658,75.249011 305.97299,77 308.90167,77 312.52816,77 322,62.557486 322,57.027869 c 0,-0.944841 0.93075,-2.560213 2.06834,-3.589714 1.90069,-1.720104 2.28569,-1.747642 4.75,-0.339756 2.29837,1.313084 2.63633,2.08606 2.36453,5.408015 -0.17443,2.131773 -0.77373,4.72911 -1.3318,5.771859 -0.55806,1.042749 -1.0789,7.014046 -1.15743,13.269549 -0.12668,10.091126 0.0918,11.688166 1.93777,14.16291 3.44142,4.613709 5.05807,4.143519 12.40562,-3.608078 7.05957,-7.447775 10.0352,-8.704727 11.98449,-5.06244 0.86709,1.620174 0.66846,2.725348 -0.96481,5.368034 C 352.92552,90.238549 352,93.145453 352,94.868034 c 0,2.591797 0.38806,3.125854 2.25,3.096531 3.46572,-0.05458 6.82379,-2.332319 9.71356,-6.588585 3.07613,-4.530754 12.13002,-10.914527 16.77243,-11.826004 3.83379,-0.752716 6.87005,0.633413 7.79906,3.56047 0.6098,1.921298 0.81291,1.970168 2.24331,0.539768 1.4304,-1.4304 1.40457,-2.067719 -0.28527,-7.039154 -1.54214,-4.536902 -1.63619,-5.733704 -0.55314,-7.038707 1.65404,-1.992995 3.15745,-1.975174 9.01971,0.106914 4.63726,1.647009 4.78933,1.635659 7.91617,-0.590848 l 3.18808,-2.270115 -0.67252,-12.738974 c -0.75252,-14.254407 0.0695,-19.40837 4.73791,-29.704224 5.11713,-11.285581 12.16213,-17.2152806 18.02502,-15.1714647 3.36007,1.1713257 8.5757,6.8724727 9.44091,10.3197577 1.10653,4.408776 -2.62349,14.982647 -9.16329,25.976111 -3.46077,5.817588 -7.67373,12.150779 -9.36213,14.073758 -3.34734,3.812416 -3.58063,5.047177 -2.01723,10.676732 1.00598,3.62236 1.19435,3.75 5.53426,3.75 2.63866,0 6.23036,-0.891753 8.703,-2.160795 2.31559,-1.188437 9.05055,-3.620728 14.96658,-5.405092 10.26736,-3.096788 10.85284,-3.166223 12.87703,-1.527131 2.52328,2.043227 1.87481,5.59609 -1.16657,6.391428 -3.22217,0.842617 -2.27425,2.485585 3.25652,5.644343 5.51225,3.148174 7.26455,3.187697 13.55326,0.305695 2.34264,-1.073591 3.85682,-2.850253 5.31195,-6.23278 3.60179,-8.372588 11.83248,-12.225382 17.1617,-8.033412 1.51233,1.189598 2.74801,2.917743 2.74595,3.840324 -0.006,2.910101 -3.69562,7.87671 -6.9064,9.297938 -3.76607,1.667023 -3.96581,3.595948 -0.50848,4.910422 3.29428,1.252485 14.42246,-0.423144 19.91862,-2.999251 2.2,-1.031164 6.51899,-2.498314 9.59775,-3.260332 4.81515,-1.191788 5.89866,-1.1857 7.75,0.04355 3.09897,2.057636 2.72899,5.698817 -0.84775,8.343215 C 529.11862,86.027748 528.69578,91 532.33312,91 c 2.84022,0 15.67452,-5.556308 21.16688,-9.163705 2.2,-1.444964 5.71571,-3.168463 7.8127,-3.829996 3.30549,-1.042781 4.06985,-0.970069 5.74573,0.546581 1.53366,1.387938 1.88226,2.8776 1.6873,7.210125 -0.33911,7.535936 1.09975,8.363801 9.44333,5.433318 3.47102,-1.219112 7.22829,-2.212012 8.3495,-2.206445 C 587.65977,88.995445 590.34241,88.1 592.5,87 c 5.40162,-2.753904 6.89073,-2.545234 11.49023,1.610137 3.2143,2.903925 4.5071,3.481857 6.60877,2.954372 1.6922,-0.424714 3.49679,-0.07654 5.12178,0.988191 2.13403,1.398277 2.42309,2.173331 1.93416,5.186216 C 616.8862,102.4761 618.36619,105 621.91274,105 c 3.71704,0 5.24415,-1.96553 4.48321,-5.770255 -0.41327,-2.066334 -0.0206,-4.056539 1.21197,-6.14316 2.66481,-4.511162 5.80316,-4.105804 10.9429,1.413415 2.30483,2.475 5.03628,4.493225 6.06989,4.484944 3.23795,-0.02594 8.8008,-2.391048 11.13684,-4.734944 C 659.51192,90.482988 667,92.029184 667,96.571429 c 0,2.117417 1.31004,1.758333 5.37732,-1.473933 5.7589,-4.576603 9.32064,-2.42268 10.5872,6.402504 0.5332,3.71524 0.78101,3.97754 3.48107,3.68451 1.59885,-0.17351 4.24555,-1.00767 5.88155,-1.85368 3.7188,-1.92307 10.2691,-1.05877 13.25824,1.74938 2.10115,1.97393 2.12287,1.97377 6.84414,-0.05 5.64542,-2.41991 9.62577,-2.5701 13.60321,-0.51328 3.21639,1.66326 4.82195,4.30725 7.39244,12.17371 0.93287,2.85485 3.06221,6.52624 4.73187,8.15863 3.49313,3.41519 3.22963,6.76459 -0.60796,7.72777 -3.22978,0.81062 -10.16016,-2.89009 -10.83115,-5.78366 -0.2925,-1.26136 -1.38002,-4.54338 -2.41672,-7.29338 -1.81294,-4.80911 -2.04553,-5.01174 -6.092,-5.30745 -2.63235,-0.19236 -5.03938,0.27552 -6.43066,1.25 -3.06634,2.14775 -8.01007,1.94978 -11.05142,-0.44255 -3.29297,-2.59025 -5.15081,-2.51118 -11.22713,0.47787 -2.75,1.35277 -6.04712,2.47366 -7.32692,2.49086 -2.30434,0.031 -6.30689,-3.34654 -9.18322,-7.74916 -1.46548,-2.2431 -1.55831,-2.25333 -5.67263,-0.62472 -4.51475,1.78712 -8.19678,1.38274 -10.76139,-1.18187 -1.75082,-1.75082 -8.0314,-1.2264 -12.41095,1.03629 -1.70676,0.8818 -3.38839,0.94096 -6.10852,0.21491 -3.22161,-0.85989 -4.18367,-0.69548 -6.78999,1.16038 -1.67011,1.18923 -5.2986,2.68437 -8.0633,3.32254 -5.96077,1.37591 -10.1279,0.11226 -12.731,-3.86058 -1.45367,-2.21858 -2.11477,-2.43617 -5.67309,-1.86717 -3.7929,0.60651 -4.25883,0.39447 -7.99317,-3.63765 -2.18101,-2.35493 -4.4138,-5.112012 -4.96175,-6.126838 -1.21487,-2.249989 -5.27689,-1.723703 -11.92033,1.544428 -6.14932,3.02506 -14.09347,2.91055 -17.45949,-0.251662 -1.36284,-1.28032 -2.99155,-4.042304 -3.61936,-6.137742 -1.35046,-4.507452 -2.30125,-4.672302 -6.88061,-1.192984 -5.20112,3.951717 -15.56941,8.432928 -20.99944,9.076038 -4.42113,0.52362 -5.09391,0.31184 -7.88908,-2.48333 C 520.80625,96.9601 520,95.225657 520,92.63594 c 0,-1.934848 -0.41047,-3.77159 -0.91216,-4.081649 -0.50168,-0.310059 -4.21418,0.174509 -8.25,1.076817 -14.78515,3.305594 -18.86929,3.036201 -24.14092,-1.592352 C 483.09917,84.879889 480,85.370706 480,89.09935 c 0,4.786779 -5.83439,11.68107 -12.10026,14.29846 -4.45168,1.85955 -17.02747,2.28754 -22.39974,0.76231 C 437.28199,101.82697 431.07529,96.028995 429.27119,89 c -0.50272,-1.958679 -1.5309,-3.5 -2.33476,-3.5 -0.79004,0 -1.32876,0.548008 -1.19716,1.217796 3.40553,17.333234 3.5437,25.995374 0.47107,29.532204 -5.00365,5.75959 -13.23843,-1.98906 -27.09309,-25.493677 -0.88949,-1.509023 -2.10325,-2.746523 -2.69724,-2.75 -0.594,-0.0035 -3.519,2.256368 -6.5,5.02188 -2.98101,2.765512 -6.50969,5.977614 -7.84152,7.138007 -2.19948,1.91635 -2.27003,2.22057 -0.76939,3.31786 0.90867,0.66444 5.14835,2.01666 9.42151,3.00495 9.76495,2.25842 12.85485,3.80867 14.69891,7.37469 2.48354,4.80264 -0.67227,11.33972 -7.41477,15.35928 -1.93311,1.15243 -4.63975,3.10795 -6.01475,4.3456 -3.22001,2.89836 -17.45708,4.21533 -23,2.12757 z m 18.19713,-10.40499 c 6.90963,-3.0525 9.96756,-5.94254 7.76311,-7.33691 -0.80313,-0.508 -2.23108,-0.93053 -3.17322,-0.93895 -0.94214,-0.008 -3.89362,-0.87484 -6.55884,-1.92537 -2.66523,-1.05054 -6.97516,-2.22937 -9.57763,-2.61963 -4.58847,-0.68809 -4.83527,-0.59239 -8.14953,3.16006 -9.59613,10.86484 2.99307,17.03976 19.69611,9.6608 z M 418,99.54879 C 418,97.323321 415.28436,87.399844 414.03807,85.071128 413.24436,83.588071 411.94584,83 409.46482,83 407.41376,83 406,83.495526 406,84.214427 c 0,1.51708 10.22656,16.769423 11.25,16.778743 0.4125,0.004 0.75,-0.64621 0.75,-1.44438 z m 44.95078,-4.631654 C 466.13168,94.234956 468,93.3099 468,92.417136 468,91.343019 466.46246,91 461.64788,91 c -7.23006,0 -11.80733,-2.342694 -14.65388,-7.5 -1.84398,-3.340893 -4.34675,-4.282058 -6.54204,-2.460131 -2.19279,1.819856 -1.74363,6.509512 0.92005,9.606227 4.23083,4.918633 11.68222,6.39347 21.57877,4.27104 z M 426.07462,44.5 C 431.72371,34.678829 434,29.136442 434,25.203014 434,22.458027 431.46271,19 429.4486,19 428.00704,19 422,25.55952 422,27.133667 c 0,0.585241 -0.64622,2.482083 -1.43604,4.215204 -3.20012,7.022118 -4.66621,18.615142 -2.92722,23.146883 0.90715,2.363978 2.23002,0.796866 8.43788,-9.995754 z"
       id="path2828"
       style="fill:#acacd6" />
    <path
       d="m 211.05987,135.73526 c -3.3461,-1.69389 -7.02197,-11.2913 -8.09382,-21.13229 -0.47306,-4.34337 -1.22145,-8.25361 -1.66308,-8.68943 -0.44163,-0.43582 -3.88517,-0.40773 -7.6523,0.0624 -9.93126,1.23942 -21.18112,0.15019 -27.15067,-2.62879 -3.76108,-1.75088 -6.77721,-2.33004 -12.17245,-2.33739 l -7.17246,-0.01 -4.50809,-5.153434 -4.5081,-5.153434 -10.56757,2.153434 c -12.53216,2.553777 -17.35891,2.686855 -22.31685,0.615296 -6.134772,-2.563271 -8.140322,-5.333262 -13.25951,-18.313536 -1.277348,-3.238859 -1.459391,-3.327903 -5.408405,-2.645444 -2.247611,0.388427 -7.591767,1.23068 -11.875902,1.871674 -7.720988,1.155218 -7.810698,1.20305 -10.223635,5.451101 -4.087201,7.195645 -12.330989,17.714218 -16.524409,21.084143 -9.013246,7.24324 -15.789512,8.2622 -21.33578,3.2083 -5.089483,-4.63767 -7.369,-13.427345 -4.170644,-16.081745 2.016638,-1.673661 3.204795,-0.656972 3.964446,3.392319 0.738512,3.936605 5.559999,8.574086 8.906084,8.566203 C 38.622922,99.987106 44.207649,96.115237 49.743188,90 55.257894,83.907779 62,73.853789 62,71.722351 c 0,-0.755548 -1.183603,-2.464664 -2.630229,-3.798037 -1.446626,-1.333373 -4.146626,-5.561619 -6,-9.396102 C 50.482192,52.55404 50,50.505552 50,44.21247 50,35.802694 51.096121,33 54.385145,33 c 2.762121,0 9.59278,4.7394 11.678961,8.103356 2.734512,4.409387 4.250714,10.344153 4.188982,16.396644 -0.03366,3.3 0.400728,6.5625 0.965303,7.25 1.290699,1.571725 7.435372,1.615262 11.828504,0.08381 C 87.028192,63.44592 95,58.219062 95,56.996541 c 0,-1.244331 3.436646,-2.149951 5.35912,-1.412227 2.07924,0.79788 2.09203,3.642576 0.0343,7.621864 -3.031264,5.861821 1.53948,19.15638 7.6773,22.330373 3.76132,1.945052 9.56399,1.821467 20.27637,-0.431846 8.53162,-1.794595 9.00452,-2.040959 13.26365,-6.909777 2.6723,-3.054844 5.85824,-5.524618 8.06688,-6.253536 5.17203,-1.706924 18.40816,-0.662499 22.56755,1.78074 3.1866,1.871821 3.25487,2.060403 3.25487,8.991318 0,5.514252 -0.41371,7.53623 -1.87128,9.145728 -2.60119,2.87232 -1.4731,4.834041 3.56978,6.207765 5.12627,1.396439 20.72786,0.556769 24.65843,-1.327103 3.98117,-1.908122 3.56176,-5.652252 -0.91944,-8.208025 -1.95938,-1.117498 -4.86649,-2.995205 -6.46024,-4.172681 -2.62893,-1.942276 -2.78746,-2.382892 -1.70893,-4.75 1.51565,-3.326479 2.96228,-3.278715 10.11924,0.334107 6.36947,3.215297 9.17476,3.136783 11.43985,-0.320175 1.87412,-2.86028 10.06477,-7.254275 16.00303,-8.585067 8.42821,-1.888801 23.90224,3.173006 28.12346,9.199643 2.3283,3.324114 1.88989,5.618566 -1.77353,9.281988 -4.28061,4.280608 -12.31024,6.632842 -23.55584,6.900548 -9.74434,0.231969 -18.67774,2.683614 -21.45493,5.888002 -1.55584,1.79517 -1.7332,3.16793 -1.18243,9.15189 0.81719,8.87857 3.10025,16.13754 5.63362,17.91198 1.27355,0.89203 3.52282,1.19702 6.41981,0.87048 3.95644,-0.44594 4.4594,-0.27772 4.4594,1.49156 0,1.42728 -1.2177,2.45924 -4.28343,3.63005 -5.09169,1.94453 -8.34403,2.04808 -11.6567,0.37112 z M 156.5,90 c 0,-2.090681 -0.53324,-2.551389 -3.25688,-2.813871 -4.01766,-0.38719 -5.62643,2.329202 -2.66286,4.49622 C 153.50537,93.821236 156.5,92.970182 156.5,90 z m 91.40503,-3.116738 c 2.42113,-0.844011 3.12917,-1.62871 2.89922,-3.213117 -0.23247,-1.601811 -1.71974,-2.534504 -6.30425,-3.953513 -8.31057,-2.57231 -15.70444,-1.966652 -21.28198,1.743285 -7.20388,4.791704 -4.56819,6.28299 11.38276,6.440403 5.55542,0.05482 11.54234,-0.402852 13.30425,-1.017058 z M 64.320723,58.25 c 0.752012,-1.285471 -1.998675,-10.43293 -3.397133,-11.297224 -3.394683,-2.098029 -3.880467,2.251266 -0.903266,8.087062 1.929122,3.781393 3.347028,4.839831 4.300399,3.210162 z m 300.879327,74.74734 c -9.58314,-4.76105 -10.49722,-9.73774 -3.53145,-19.22702 2.85243,-3.88579 3.44484,-5.36936 2.65034,-6.63734 -1.38393,-2.2087 -4.91032,-2.58796 -9.61776,-1.03436 -3.55265,1.17248 -4.29674,1.082 -8.22049,-0.99954 -3.89032,-2.06381 -4.66437,-2.16212 -7.87709,-1.00038 -3.12514,1.13006 -4.14798,1.04582 -8.32604,-0.68573 -4.06894,-1.68633 -5.15585,-2.77128 -7.45701,-7.443517 -1.48158,-3.008199 -2.72231,-6.721076 -2.75717,-8.250838 -0.0861,-3.779353 -2.3075,-4.348892 -6.60436,-1.69329 -2.77325,1.713963 -4.59336,2.106924 -7.98706,1.724404 -4.37079,-0.492651 -4.40881,-0.469604 -6.81048,4.127427 -1.32834,2.542564 -3.13933,8.128244 -4.02442,12.412624 -0.8851,4.28438 -2.08136,8.67188 -2.65835,9.75 -1.11134,2.07656 -4.43475,2.64938 -5.4876,0.94583 -0.82377,-1.33289 1.23778,-11.29512 3.51495,-16.98561 7.20745,-18.010926 7.11427,-17.61636 5.81954,-24.643129 C 293.65597,61.581901 298.00462,36 302.17587,36 c 2.73682,0 4.72062,2.400058 5.83974,7.065087 1.27864,5.329952 1.14121,7.492737 -1.43732,22.619633 -0.86109,5.051595 -1.29533,9.889095 -0.96497,10.75 2.44799,6.379341 14.64321,-6.911675 17.28606,-18.83928 0.96663,-4.362571 3.56361,-5.576899 6.22823,-2.912276 2.12335,2.123352 2.12987,2.233472 0.43817,7.405544 -2.50199,7.649378 -2.48611,25.544706 0.0264,29.798102 3.55537,6.018761 6.38054,5.27298 14.65261,-3.867961 5.49912,-6.076724 8.94547,-7.571298 10.16007,-4.406104 0.34038,0.887009 -0.31587,3.125184 -1.45833,4.973721 -2.73919,4.432099 -2.35403,9.784344 0.73576,10.224215 3.4016,0.484264 8.08377,-2.479888 10.85732,-6.873471 2.75274,-4.36062 11.64424,-10.623986 16.44485,-11.584108 C 384.80002,79.589996 387,81.351304 387,85.16913 l 0,2.92424 2.47486,-1.796685 c 3.48808,-2.532259 3.92369,-4.686233 1.97802,-9.780887 -2.86581,-7.504023 -0.94627,-8.956926 7.72686,-5.848465 l 4.67974,1.677225 3.60301,-2.748146 3.603,-2.748147 -0.67331,-12.753955 c -0.74881,-14.184131 0.0819,-19.488805 4.6474,-29.675738 3.2134,-7.170075 7.78188,-12.687764 11.9265,-14.404521 2.55385,-1.0578419 3.43929,-0.9614063 6.2512,0.68084 1.80176,1.052283 4.28565,3.411575 5.51976,5.242871 2.46522,3.658138 2.3533,7.416313 -0.47835,16.062238 -1.55951,4.761686 -13.89007,26 -15.0951,26 -0.38983,0 -1.52765,1.520545 -2.52849,3.37899 -1.64422,3.053136 -1.68755,3.848727 -0.44927,8.25 1.3447,4.779536 1.45139,4.876866 5.6808,5.182832 3.20838,0.232102 5.93342,-0.470961 10.65886,-2.75 C 440.01716,70.37782 443.33519,69 443.89889,69 c 0.56371,0 4.49168,-1.1009 8.72882,-2.446445 5.58208,-1.77264 8.20909,-2.176083 9.5381,-1.464817 2.70829,1.449436 2.23346,3.65343 -1.16581,5.411262 -1.65,0.853248 -3,1.956778 -3,2.45229 0,0.495511 2.51223,2.338282 5.58274,4.095046 4.60492,2.634669 6.34042,3.108716 9.90866,2.706523 5.46265,-0.61572 10.16523,-3.91404 11.00014,-7.715331 0.85711,-3.902397 6.07537,-8.866654 10.11743,-9.624949 3.69615,-0.693402 8.30649,1.931581 8.35961,4.759696 0.0421,2.23942 -4.71362,7.77929 -7.62991,8.888064 C 494.0524,76.550377 493,77.581536 493,78.352804 c 0,5.144921 11.68262,5.221041 24,0.156376 7.12179,-2.928341 14.64922,-4.045187 16.56243,-2.45737 2.30463,1.912679 1.67204,4.645046 -1.61777,6.987596 -2.47294,1.760887 -2.99714,2.774612 -2.75,5.318094 0.25386,2.612694 0.77987,3.196898 3.11998,3.465159 1.54804,0.177463 3.79804,-0.313852 5,-1.091812 1.20195,-0.777959 3.31036,-1.6921 4.68536,-2.031425 1.375,-0.339324 5.425,-2.372021 9,-4.517104 12.96992,-7.782252 17.75181,-7.684035 16.65172,0.342015 -0.30923,2.256037 -0.3116,5.060283 -0.005,6.231657 0.76499,2.925327 5.36263,3.807798 9.2812,1.781431 1.69048,-0.874185 5.39225,-2.029148 8.22614,-2.566584 2.83388,-0.537436 6.50274,-1.650734 8.15301,-2.473997 4.44982,-2.219863 6.27675,-1.867886 10.60604,2.043368 3.06316,2.767389 4.4624,3.40372 6.40974,2.914969 4.46312,-1.120173 6.67743,0.995505 6.67743,6.380007 0,2.620646 0.54,5.304816 1.2,5.964816 1.63559,1.63559 4.9151,1.50811 7.48356,-0.29091 1.72261,-1.20656 2.03296,-2.20784 1.62729,-5.249998 -0.3776,-2.83162 0.0154,-4.414551 1.59305,-6.415703 2.76346,-3.505366 5.19956,-2.802892 9.90717,2.856829 3.87953,4.664162 3.55269,4.587562 11.68893,2.739596 1.65,-0.374759 4.03071,-1.752029 5.29047,-3.060598 C 659.55346,91.470418 666,92.620103 666,97.2 c 0,2.619491 2.20635,2.212166 6.5,-1.2 2.07626,-1.65 4.05063,-2.993109 4.3875,-2.984687 2.5808,0.06452 5.1125,4.675781 5.1125,9.311957 0,4.58554 1.7687,5.10535 8.63287,2.53713 6.36685,-2.38214 11.02071,-2.06866 14.92901,1.00562 2.50295,1.96881 2.57702,1.96972 6.73445,0.0823 2.31202,-1.04962 6.05548,-1.91829 8.31881,-1.93037 6.05061,-0.0323 8.84799,2.6679 11.58893,11.18631 1.34345,4.17522 3.43678,8.27673 5.04593,9.88662 1.5125,1.51319 2.75,3.45231 2.75,4.30913 0,2.3419 -4.71017,3.10461 -8.37629,1.35636 -2.57514,-1.22799 -3.60521,-2.75564 -5.52516,-8.19414 -1.29795,-3.67661 -3.00825,-7.33308 -3.80066,-8.12549 -1.8659,-1.86591 -7.3738,-1.85057 -9.85676,0.0275 -2.92971,2.21591 -9.7542,1.94834 -11.94113,-0.4682 -2.3995,-2.65142 -5.22023,-2.52208 -10.90398,0.5 -2.58601,1.375 -5.83765,2.5 -7.22586,2.5 -2.44731,0 -6.02744,-3.04413 -9.41357,-8.0042 -1.49012,-2.18275 -1.65243,-2.20445 -4.70034,-0.62831 -4.24736,2.19639 -7.44965,2.05482 -10.66113,-0.47133 -2.94141,-2.31371 -7.44499,-2.0594 -12.82827,0.72441 -2.29262,1.18556 -3.52601,1.23226 -6.78182,0.2568 -3.45522,-1.03521 -4.2347,-0.9614 -5.91609,0.56024 -2.61467,2.36624 -8.76324,4.46496 -13.2377,4.5185 -2.93741,0.0351 -4.33281,-0.66201 -7,-3.49723 -3.02026,-3.21056 -3.68927,-3.48106 -7.16653,-2.8977 -3.52638,0.59161 -4.1207,0.33316 -7.37899,-3.20887 -1.94904,-2.11877 -4.22638,-4.88613 -5.06077,-6.149687 -1.77758,-2.691904 -4.85789,-2.406007 -12.22495,1.134648 -5.85542,2.814159 -13.93816,2.933659 -16.90365,0.249927 -1.16249,-1.052042 -2.645,-3.686384 -3.29446,-5.854093 -0.64946,-2.16771 -1.7602,-4.163612 -2.4683,-4.435338 -0.70811,-0.271726 -4.00435,1.320219 -7.32499,3.537654 C 542.91794,97.570382 534.31075,101 529.51825,101 c -4.81133,0 -8.54743,-3.476382 -8.84416,-8.229366 -0.36737,-5.884536 -1.08635,-6.070815 -13.02058,-3.373444 -11.95852,2.702864 -15.3889,2.37923 -20.51681,-1.935619 C 482.58292,83.629821 479,84.735335 479,89.972156 c 0,3.347709 -5.17154,9.564548 -10.00953,12.032704 -2.76964,1.41297 -6.23938,2.01288 -12.65327,2.18772 -7.73519,0.21087 -9.54559,-0.087 -14.51785,-2.38876 C 435.44503,98.853034 430.6449,93.251146 429.56689,87.50485 429.08159,84.918002 428.3974,84 426.95469,84 c -2.42613,0 -2.46953,1.596625 -0.35076,12.903789 3.7068,19.781911 -1.52727,25.753741 -12.57388,14.346211 -3.06244,-3.1625 -6.23452,-7.10145 -7.04906,-8.75322 C 403.70086,95.845165 397.63463,87 396.35292,87 c -0.74954,0 -3.56836,2.1375 -6.26404,4.75 -2.69568,2.6125 -6.09985,5.65 -7.56482,6.75 -1.46497,1.1 -2.74469,2.86573 -2.84382,3.92386 -0.15222,1.62481 1.37412,2.34675 9.81976,4.64458 5.5,1.4964 10.80414,3.04769 11.78699,3.44732 2.56933,1.04471 4.86862,6.01606 4.13478,8.93992 C 404.81401,121.87716 396.90785,130 395.15871,130 c -0.48729,0 -1.96913,1.08314 -3.29297,2.40698 -2.05184,2.05184 -3.73186,2.50387 -11.38636,3.06363 -8.67639,0.63448 -9.19196,0.55103 -15.27933,-2.47327 z m 20.03381,-5.98365 c 6.17991,-2.3122 12.4279,-7.13393 11.39976,-8.79748 -0.38708,-0.62631 -2.37549,-1.44278 -4.4187,-1.81438 -2.04321,-0.37159 -5.7664,-1.47355 -8.27376,-2.44879 -2.50737,-0.97524 -6.58032,-2.0763 -9.05102,-2.44681 -4.44748,-0.66694 -4.52896,-0.62641 -8.19115,4.07418 -4.379,5.62064 -4.6514,8.52526 -1.06413,11.34701 3.50228,2.7549 12.36222,2.7939 19.599,0.0863 z m 33.7585,-27.322707 c -0.0105,-3.001706 -3.57052,-14.477773 -5.04081,-16.249357 -1.6336,-1.968376 -7.84362,-1.886451 -8.61112,0.113601 -0.54699,1.425434 2.76403,7.072068 9.49041,16.185029 2.57286,3.485734 4.17378,3.466774 4.16152,-0.04927 z M 377.4652,97.896408 C 380.90588,94.875452 381.9182,93 380.10814,93 c -1.15735,0 -8.98905,6.269494 -9.05653,7.25 -0.11883,1.72683 3.1199,0.53831 6.41359,-2.353592 z M 463.5,95.646938 c 3.93903,-0.914696 5,-1.583956 5,-3.154003 0,-1.78352 -0.68877,-1.997445 -6.55482,-2.03586 -7.27917,-0.04767 -11.78938,-2.3277 -14.16189,-7.159223 -1.76899,-3.602473 -4.32623,-5.075929 -6.46646,-3.725906 -4.1704,2.630621 -4.19304,7.151374 -0.0597,11.921546 4.28448,4.944595 12.35005,6.450692 22.24286,4.153446 z M 422.62442,52.25 c 5.61729,-8.628394 11.52029,-20.909981 12.08936,-25.152751 0.46298,-3.45177 0.15905,-4.603709 -1.7511,-6.636971 C 431.69146,19.107125 430.14024,18 429.51552,18 c -1.89853,0 -7.50344,6.09519 -8.16807,8.882558 -0.34326,1.439593 -1.11187,3.517442 -1.70801,4.617442 -3.00059,5.536658 -4.36162,15.639086 -3.01444,22.375 0.8659,4.32951 2.39199,3.916155 5.99942,-1.625 z"
       id="path2826"
       style="fill:#9191c7" />
    <path
       d="m 212.46528,136.04848 c -1.11909,-0.45362 -2.58887,-1.49247 -3.26616,-2.30856 -2.39552,-2.88642 -6.19918,-15.72219 -6.21443,-20.97114 -0.0215,-7.40689 -0.73093,-8.18708 -6.62413,-7.2851 -2.67331,0.40916 -8.81602,0.69557 -13.65048,0.63646 -7.38723,-0.0903 -9.91625,-0.58676 -15.84813,-3.111 -6.02859,-2.5654 -7.84194,-2.91143 -12.43075,-2.37211 -6.43216,0.75598 -9.15912,-0.661676 -13.01149,-6.764211 -2.0208,-3.201161 -3.0401,-3.970442 -4.74657,-3.5823 -22.49379,5.11628 -25.60315,5.25845 -33.2507,1.520326 -4.105612,-2.006826 -5.957942,-4.934739 -10.867471,-17.177832 -1.40095,-3.493609 -1.816411,-3.803879 -4.302823,-3.213382 -1.51368,0.359483 -7.008007,1.25471 -12.209614,1.989392 -5.431307,0.767126 -9.629026,1.850458 -9.860457,2.544751 -1.13945,3.41835 -11.295591,17.24679 -16.287303,22.176533 C 39.601884,108.29541 30.79741,109.56464 25.019327,101.71626 22.464557,98.246117 21.966994,96.717506 22.207628,93.078169 22.588029,87.324997 24.575017,86.708019 25.9753,91.908273 27.030307,95.826268 32.100016,101 34.884229,101 c 2.79787,0 9.249814,-4.308484 14.166612,-9.460189 C 54.567091,85.760013 63,73.701939 63,71.594145 63,70.923165 61.593482,69.052491 59.874404,67.437091 58.155327,65.821691 55.455682,61.8 53.875193,58.5 51.44479,53.425411 51.001456,51.257039 51.000789,44.44113 c -0.0012,-12.740651 2.524875,-14.186558 11.30964,-6.473432 4.57108,4.013462 8.020447,13.762513 7.529256,21.280168 -0.320304,4.902232 -0.17235,5.279811 2.593142,6.617689 2.438409,1.179643 3.787054,1.208312 8,0.170063 5.291784,-1.304121 11.943456,-5.092463 14.650932,-8.34418 3.409411,-4.09475 7.487691,0.0038 4.870274,4.894452 -3.271341,6.112556 1.933767,20.882353 8.286627,23.513793 6.88113,2.850258 27.91198,-0.667249 31.78923,-5.316895 1.04696,-1.255534 1.91854,-2.613903 1.93684,-3.0186 0.0183,-0.404696 1.78025,-1.891911 3.91546,-3.304922 3.45954,-2.289419 4.8717,-2.567537 12.97139,-2.554661 6.52133,0.01037 10.01548,0.489083 12.36781,1.694454 4.26283,2.184333 4.31347,2.289348 4.24525,8.803622 -0.0429,4.09218 -0.63818,6.33807 -2.2624,8.534939 -2.87657,3.890773 -2.78553,4.710424 0.72485,6.525712 6.62248,3.424618 25.51185,2.349955 29.81909,-1.696483 2.96352,-2.784088 2.84092,-4.360173 -0.49818,-6.403943 -10.42242,-6.379276 -12.13967,-8.549731 -8.89504,-11.242537 1.03566,-0.85952 2.74417,-0.420049 7.25,1.864888 3.24227,1.644174 6.81495,2.995108 7.93928,3.002076 1.12433,0.007 3.94195,-1.756914 6.26136,-3.919734 C 220.4851,74.704033 229.15066,71 234.6797,71 245.09195,71 259,78.368954 259,83.885713 c 0,6.481257 -9.35507,11.070051 -24,11.772333 -5.56641,0.266931 -12.34439,1.327995 -16.36947,2.562574 -8.64757,2.65239 -9.90569,4.87339 -8.37202,14.77938 2.31101,14.92678 4.49734,18.62586 10.43888,17.66168 7.31137,-1.18647 8.30514,1.35892 1.67549,4.29153 -4.96403,2.19582 -6.71493,2.38938 -9.9076,1.09527 z M 156.5,89.916667 c 0,-3.301228 -0.11825,-3.405468 -3.5,-3.085222 -4.15861,0.393814 -5.28364,1.265823 -4.44677,3.446675 0.62627,1.63204 5.10869,3.764734 6.94677,3.305213 0.55,-0.1375 1,-1.7875 1,-3.666666 z m 10.94721,-3.002077 c -0.32197,-0.520968 -1.01165,-0.683779 -1.53262,-0.361804 -0.52097,0.321976 -0.68378,1.011657 -0.3618,1.532624 0.32197,0.520968 1.01165,0.683779 1.53262,0.361804 0.52097,-0.321976 0.68378,-1.011657 0.3618,-1.532624 z m 81.87213,0.170151 c 2.11851,-0.817519 2.73996,-1.646868 2.5,-3.336353 -0.25193,-1.773766 -1.69145,-2.728428 -6.81934,-4.522442 -8.43818,-2.952135 -15.24973,-2.491273 -21.47463,1.452951 -5.619,3.560319 -5.89623,6.006788 -0.77537,6.84238 2.0625,0.336547 4.425,0.767921 5.25,0.958609 2.97695,0.688084 18.56419,-0.331951 21.31934,-1.395145 z M 65,56.467881 c 0,-1.942665 -0.665628,-5.125191 -1.479174,-7.07228 -1.165362,-2.789104 -1.960937,-3.471788 -3.75,-3.217881 -1.85944,0.263895 -2.244926,0.903588 -2.127861,3.53106 C 57.812084,53.504566 61.560303,60 63.581559,60 64.538425,60 65,58.850611 65,56.467881 z m 299.28831,75.753529 c -4.08364,-2.13237 -5.427,-3.45386 -6.20639,-6.1054 -1.1129,-3.78613 -0.14551,-6.33711 5.29517,-13.96308 l 3.10137,-4.34708 -2.45167,-1.98524 c -1.79189,-1.45099 -3.26913,-1.81577 -5.48923,-1.35547 -8.7547,1.8151 -9.70237,1.78913 -12.58894,-0.34501 -3.10278,-2.29398 -5.46911,-2.70502 -6.44862,-1.12013 -0.89009,1.4402 -6.01389,1.22995 -9.93308,-0.40759 -3.66045,-1.52943 -7.9039,-8.541304 -9.13256,-15.090598 -0.88201,-4.701535 -1.80129,-5.056188 -6.14593,-2.371056 -2.67373,1.652458 -5.06516,2.238787 -8.77677,2.151887 -5.01117,-0.117328 -5.14044,-0.04551 -7.28726,4.048955 -1.20208,2.292621 -3.12841,8.218402 -4.28073,13.168402 -2.20579,9.47532 -4.06235,12.78132 -6.05733,10.78634 -1.35906,-1.35906 0.17374,-11.44864 2.51063,-16.526109 0.82528,-1.793127 2.64615,-6.594233 4.04638,-10.669124 2.28903,-6.661461 2.48279,-8.376473 1.92068,-17 -0.95705,-14.682524 1.77177,-31.202901 5.53862,-33.530939 1.85688,-1.147617 4.08558,0.737073 5.07224,4.289325 1.41407,5.091007 1.29686,9.061482 -0.62557,21.192378 C 304.48587,74.80062 304.93507,79 308.05636,79 c 3.61888,0 10.32442,-8.159473 13.68822,-16.656188 2.19253,-5.538145 3.60976,-7.843812 4.82139,-7.843812 2.90979,0 4.06885,3.000857 2.59732,6.724562 -0.71191,1.801491 -1.5384,8.675438 -1.83665,15.275438 -0.51795,11.461559 -0.43503,12.157045 1.84784,15.5 1.62814,2.384179 3.31106,3.606138 5.27882,3.832923 2.46433,0.284014 3.87631,-0.708999 9.61136,-6.75942 4.69284,-4.950893 7.20768,-6.906226 8.329,-6.475934 1.98427,0.761433 2.05032,2.780454 0.18606,5.687614 -1.27019,1.98075 -1.98153,5.974829 -1.68568,9.464817 0.15047,1.775053 5.78322,1.558728 8.95167,-0.343787 1.45986,-0.876583 3.83987,-3.284659 5.2889,-5.35128 3.09337,-4.411766 11.00773,-10.044905 15.58587,-11.09342 4.14876,-0.950176 5.73831,0.823873 4.97159,5.548633 -0.49584,3.055475 -0.35542,3.37848 1.12053,2.577593 0.92807,-0.503594 2.98417,-2.278339 4.56911,-3.943876 2.88058,-3.027063 2.88107,-3.029849 1.25,-7.106293 -3.07826,-7.693319 -1.50928,-10.137844 4.81167,-7.496782 4.89225,2.044113 7.59507,1.818572 11.01694,-0.919324 2.81457,-2.251987 2.9421,-2.682536 2.5902,-8.745033 -1.10297,-19.001963 -0.6269,-23.891736 3.24953,-33.376431 2.7592,-6.751112 4.79093,-10.061975 8.13093,-13.25 5.02312,-4.7945592 7.93378,-5.3241231 11.94048,-2.172448 5.21914,4.105374 6.08592,9.434934 3.1588,19.422448 -1.62277,5.536984 -11.1582,22.161013 -15.65038,27.284796 -3.09354,3.528494 -3.51351,6.393432 -1.8273,12.465204 1.03826,3.738587 1.05777,3.75 6.41226,3.75 3.64758,0 6.92126,-0.766615 10.203,-2.38929 6.01225,-2.972794 23.121,-7.905718 24.96501,-7.198103 C 463.96541,66.307692 463.1412,68.87562 460,70.5 c -1.65,0.853248 -3,1.967781 -3,2.476739 0,0.508958 2.92118,2.558996 6.49151,4.555639 5.21456,2.916144 7.1325,3.50334 9.75,2.98505 6.36948,-1.261215 9.79677,-3.773557 11.95024,-8.760001 3.33619,-7.72508 11.29711,-11.189686 15.3701,-6.689089 1.70555,1.88462 1.73924,2.304536 0.37927,4.727495 -0.8209,1.462536 -3.05598,3.712752 -4.96683,5.000478 -1.91086,1.287727 -3.47429,3.084565 -3.47429,3.992973 0,2.06675 4.04572,4.181245 8,4.181193 4.07506,-5.3e-5 15.15188,-2.677792 18.3757,-4.44219 1.44336,-0.789955 4.8743,-1.882623 7.6243,-2.428152 4.39809,-0.872468 5.23588,-0.759167 6.95941,0.941182 1.94365,1.917511 1.92958,1.960372 -1.75,5.330739 -3.85136,3.527706 -4.43082,5.411469 -2.67423,8.693685 1.20088,2.243853 3.43721,2.449141 6.96482,0.639348 1.375,-0.705424 4.75,-2.12216 7.5,-3.148303 2.75,-1.026142 6.81945,-3.103805 9.04323,-4.617028 4.32326,-2.941872 11.87099,-5.419826 13.47984,-4.425498 C 566.56038,79.846336 567,82.701476 567,85.859017 567,92.097558 568.11295,94 571.76258,94 c 2.4148,0 11.65689,-2.738188 20.91236,-6.195778 4.77349,-1.783249 5.40877,-1.812295 8.18929,-0.37443 1.6579,0.857332 3.68972,2.522997 4.51516,3.701478 1.1614,1.65813 2.15992,2.010867 4.41539,1.559775 1.83376,-0.366754 3.7215,-0.01773 5.09055,0.94119 1.7928,1.255725 2.06161,2.133703 1.52652,4.985929 C 615.58045,103.04992 617.99553,106 622.45499,106 626.70104,106 628,104.41507 628,99.234259 628,94.226418 629.39897,91 631.57037,91 c 2.41707,0 6.41428,3.069642 8.00642,6.1485 1.07839,2.085365 2.20653,2.847421 4.19889,2.836319 4.15872,-0.02317 11.03076,-2.346595 12.45351,-4.210503 3.13234,-4.103592 9.77081,-2.54289 9.77081,2.297113 0,2.739031 2.03353,2.391861 6.03777,-1.030788 1.90423,-1.627648 4.2339,-2.977648 5.17705,-3 2.21641,-0.05253 4.15721,3.549032 4.22877,7.847359 0.0835,5.0146 2.41476,6.05263 8.30362,3.6973 6.23054,-2.49199 11.73326,-2.34552 15.46242,0.41157 l 2.94976,2.18085 4.85569,-2.08886 c 9.88463,-4.25226 15.58531,-1.46385 18.69075,9.14231 1.13483,3.87582 3.02302,7.43598 5.13804,9.68768 2.48093,2.64126 3.09974,3.9498 2.39787,5.07056 -2.85865,4.56477 -9.96385,0.58106 -12.6196,-7.07551 -3.05586,-8.81009 -4.05444,-9.91905 -8.89519,-9.87846 -2.32482,0.0195 -5.35195,0.67854 -6.72695,1.46456 -3.7781,2.15976 -7.5714,1.80171 -10.5945,-1 -3.32828,-3.08454 -3.90256,-3.08928 -9.84414,-0.0813 -8.00015,4.05019 -9.27473,4.0841 -12.87607,0.34254 -1.75191,-1.82013 -3.68466,-4.19851 -4.295,-5.28529 -1.00326,-1.78644 -1.44173,-1.85607 -4.571,-0.72598 -5.01911,1.81259 -9.18171,1.53756 -11.85788,-0.78347 -1.30765,-1.13412 -3.03384,-1.76655 -3.90301,-1.42997 -0.85712,0.33193 -2.9084,0.86031 -4.5584,1.17418 -1.65,0.31388 -3.52136,0.97832 -4.15858,1.47654 -0.63721,0.49823 -3.46106,0.60043 -6.27521,0.22712 -4.0818,-0.54148 -5.4969,-0.33461 -6.99685,1.02283 -1.99762,1.80785 -10.06438,4.5628 -13.36021,4.5628 -1.08515,0 -3.51141,-1.6312 -5.3917,-3.62488 -3.0848,-3.27084 -3.80647,-3.57287 -7.389,-3.09235 -2.57215,0.345 -4.40311,0.0762 -5.19937,-0.76318 -0.67599,-0.71264 -3.02908,-3.36747 -5.22908,-5.89961 -4.68546,-5.39284 -6.38094,-5.647876 -14.09371,-2.11998 -5.67283,2.5948 -13.0607,3.2905 -16.33488,1.53822 -1.81649,-0.97216 -3.41056,-4.255691 -4.50918,-9.28822 -0.79108,-3.623765 -2.28874,-3.471633 -8.60654,0.87425 -7.28007,5.007805 -15.59321,8.51445 -20.64892,8.71011 -5.43328,0.21028 -8.42635,-2.551491 -9.25401,-8.538864 L 520.45898,87.5 l -4.47949,0.203397 c -2.46372,0.111869 -7.43496,0.964838 -11.04721,1.895488 -8.07429,2.080238 -12.76668,1.363426 -17.33568,-2.648209 C 485.74826,85.327804 483.73288,84 483.11798,84 481.01137,84 478,87.999315 478,90.797052 c 0,2.916214 -5.15207,8.76062 -9.84963,11.173218 -1.30263,0.66901 -6.87267,1.2787 -12.5,1.36823 -8.72503,0.13882 -10.72535,-0.14618 -14.24505,-2.02959 -5.39153,-2.885033 -10.14764,-8.418438 -10.9606,-12.7519 -0.85537,-4.559499 -2.99323,-6.437075 -5.02079,-4.409513 -1.30092,1.300922 -1.29498,2.334773 0.0502,8.729473 2.22435,10.57421 2.04014,19.60877 -0.4506,22.09951 -2.40165,2.40165 -4.43478,1.80818 -9.43812,-2.75499 -3.61821,-3.29989 -4.33984,-4.3155 -13.1249,-18.47149 -2.64527,-4.2625 -5.25285,-7.75 -5.79462,-7.75 -0.54178,0 -3.72574,2.531312 -7.07547,5.625137 -3.34972,3.093826 -7.12307,6.535463 -8.38522,7.648084 -2.49273,2.197429 -2.57611,4.554619 -0.20519,5.800869 0.825,0.43366 5.775,1.94661 11,3.36212 9.8717,2.67435 13,4.82624 13,8.94244 0,2.31617 -4.50674,9.62135 -5.93564,9.62135 -0.47495,0 -3.12338,1.69801 -5.88541,3.77336 -4.90254,3.6837 -5.24353,3.77807 -14.35041,3.97141 -8.42129,0.17879 -9.83541,-0.0666 -14.54023,-2.52336 z m 23.5506,-5.72961 c 11.06526,-4.96579 12.28287,-9.27083 3.13426,-11.08163 -3.02836,-0.59941 -6.46387,-1.60242 -7.63448,-2.22891 -1.17061,-0.62649 -4.61385,-1.43119 -7.65165,-1.78822 -5.44635,-0.64011 -5.56967,-0.59663 -8.85516,3.12246 -4.25248,4.8137 -5.21318,7.35223 -3.88533,10.26653 2.62647,5.76447 14.10105,6.55263 24.89236,1.70977 z M 420,102.34042 c 0,-0.24509 -0.72984,-3.684442 -1.62186,-7.643015 C 416.11713,84.663629 414.75666,82.341551 410.78572,81.738473 407.49181,81.238217 404,82.348763 404,83.896627 c 0,0.913481 9.44008,15.619857 11.73781,18.285933 C 416.97045,103.6128 420,103.725 420,102.34042 z m -41.26756,-5.017704 c 3.85046,-3.777549 4.42549,-4.754515 2.98929,-5.078769 -0.993,-0.224192 -3.28482,0.921279 -5.18989,2.593954 -1.87639,1.647491 -4.17685,3.423682 -5.11213,3.947091 C 369.54313,99.83518 370.29846,102 372.54146,102 c 0.78288,0 3.56882,-2.104778 6.19098,-4.677284 z m 86.50563,-1.512191 c 7.7805,-2.331093 5.29844,-7.135143 -3.16835,-6.132377 -6.01663,0.712581 -10.21108,-1.357723 -13.58771,-6.706643 C 446.49037,79.816539 445.37235,79 443.04416,79 c -3.67302,0 -6.24017,3.304998 -5.38583,6.933834 0.72895,3.096289 3.77781,6.671499 7.84167,9.195464 3.53415,2.194975 13.53373,2.540094 19.73807,0.681227 z M 423.07786,52.75 C 429.73902,41.987734 436,28.77856 436,25.487387 c 0,-4.260065 -5.08159,-9.049274 -7.96459,-7.506336 -2.33651,1.250458 -7.03355,6.817396 -7.04157,8.345674 -0.003,0.645301 -0.71682,2.523275 -1.58541,4.173275 -3.23121,6.138118 -4.75286,20.11659 -2.85748,26.25 0.81392,2.633835 3.40311,1.047057 6.52691,-4 z"
       id="path2824"
       style="fill:#8585bb" />
    <path
       d="m 211.64767,134.86263 c -3.00762,-1.74798 -6.80863,-11.66788 -7.80163,-20.36071 -0.50249,-4.39894 -1.46092,-8.53635 -2.12983,-9.19424 -0.8842,-0.86962 -3.08598,-0.96149 -8.06554,-0.33654 -9.92036,1.24503 -21.17641,0.15719 -27.15067,-2.62398 -3.73816,-1.7402 -6.78245,-2.33009 -12.06291,-2.33739 -6.41028,-0.009 -7.29991,-0.263875 -9.62781,-2.75977 -1.4107,-1.5125 -3.08572,-3.7625 -3.72228,-5 -1.42719,-2.774551 -3.1692,-2.806879 -14.63766,-0.271642 C 121.5272,93.066455 115.7,93.962059 113.5,93.968589 108.08657,93.984658 99.396627,89.858883 98.486499,86.84054 97.261932,82.779393 91.744585,71.53192 90.598582,70.760504 89.994362,70.353782 88.825,70.277113 88,70.59013 c -2.087961,0.792201 -11.882769,2.614947 -15.5,2.884442 -1.65,0.12293 -3.546955,0.291441 -4.215454,0.374469 C 67.616046,73.932068 64.62314,77.7125 61.633644,82.25 54.208072,93.520641 48.674,99.572309 42.614902,103.04755 37.59941,105.92421 31.864761,106.83587 29.245529,105.17291 26.15683,103.21188 23,97.466288 23,93.80572 23,89.284205 24.568824,88.760384 25.494063,92.972968 26.293864,96.614439 31.277933,101 34.616563,101 38.727906,101 44.187503,97.477342 50.5,90.751637 55.660654,85.253175 64,73.422183 64,71.599249 64,71.272831 62.428323,69.266103 60.507385,67.139854 54.768824,60.787953 51.86956,53.248257 51.778301,44.439388 51.675734,34.539013 53.125186,32.678182 58.400078,35.938245 62.555628,38.506516 66,42.967931 66,45.782247 c 0,1.085428 0.675,3.589007 1.5,5.56351 0.825,1.974503 1.5,5.799359 1.5,8.49968 0,6.51743 1.382438,7.579016 8.973337,6.890697 6.22878,-0.564806 16.272993,-5.329719 17.394277,-8.251738 0.620369,-1.616654 4.176418,-2.031184 5.066726,-0.59063 0.30381,0.491571 -0.16718,2.615918 -1.046643,4.720771 -2.076522,4.969816 -1.258562,11.039084 2.355603,17.4786 4.61581,8.224177 10.13976,9.474758 26.5777,6.016995 8.5167,-1.791509 9.00217,-2.045578 14.07269,-7.364972 4.21276,-4.41952 6.09859,-5.652534 9.53261,-6.232708 5.42555,-0.916641 16.72911,0.261544 20.3237,2.118367 2.52348,1.303532 2.75,1.901148 2.75,7.255314 0,4.628974 -0.53532,6.623605 -2.59035,9.651868 l -2.59035,3.817094 2.34035,1.775286 c 3.28648,2.492983 11.90508,3.356529 21.60693,2.16491 C 202.73389,98.193896 206,96.343719 206,92.365336 c 0,-1.664505 -1.06495,-2.891991 -3.75,-4.32232 -6.14539,-3.273662 -8.48976,-5.712233 -7.74561,-8.05685 0.77114,-2.429647 2.71391,-2.087061 9.17368,1.617674 2.29794,1.317888 4.84869,2.39616 5.66835,2.39616 0.81965,0 3.74498,-1.924586 6.50074,-4.276857 2.75575,-2.352271 7.33638,-5.113245 10.17917,-6.135498 C 237.92384,69.309362 258,75.847246 258,84 c 0,6.095484 -8.39111,10.100012 -22.5,10.73777 -11.50912,0.520242 -20.77596,3.204904 -24.33587,7.05025 -2.1444,2.31635 -2.28391,3.10465 -1.70198,9.61757 1.3688,15.31958 4.87775,20.89502 12.50649,19.87179 4.9846,-0.66857 5.22252,0.78417 0.49743,3.03741 -4.0184,1.91624 -8.10761,2.12332 -10.8184,0.54784 z M 157.5,90 c 0,-3.481481 -0.0238,-3.5 -4.5,-3.5 -3.84521,0 -4.54466,0.313347 -4.8069,2.153443 -0.38444,2.697566 3.36049,5.51968 6.8069,5.129553 2.13657,-0.241857 2.5,-0.791795 2.5,-3.782996 z m 92.25,-2.579074 c 3.40299,-1.380957 4.34147,-4.287337 2,-6.193816 -3.01239,-2.452755 -15.26668,-5.329512 -19.9745,-4.689115 C 226.7399,77.22298 218,82.895254 218,85.478419 c 0,3.978242 23.23107,5.399549 31.75,1.942507 z M 168,87.5 c 0,-0.825 -0.675,-1.5 -1.5,-1.5 -0.825,0 -1.5,0.675 -1.5,1.5 0,0.825 0.675,1.5 1.5,1.5 0.825,0 1.5,-0.675 1.5,-1.5 z M 65.295433,54.59383 c -0.227098,-6.478697 -2.306309,-9.879123 -5.740258,-9.38785 -2.202492,0.315096 -3.136866,3.407936 -2.158787,7.145733 1.085868,4.149717 4.601881,8.795955 6.380371,8.431344 1.423428,-0.291819 1.68765,-1.368633 1.518674,-6.189227 z M 372,134.40371 c -0.825,-0.28467 -4.04954,-1.68156 -7.16564,-3.10419 -4.88816,-2.23166 -5.75169,-3.04529 -6.29268,-5.92905 -0.68673,-3.66056 0.21356,-5.91261 4.60301,-11.51437 3.32423,-4.24233 3.64982,-7.36053 0.92105,-8.82092 -2.46909,-1.32142 -8.75651,-1.34454 -9.56574,-0.0352 -1.09073,1.76484 -5.11431,1.07234 -8.96927,-1.54371 -3.49068,-2.36884 -3.91033,-2.43758 -6.10437,-1 -2.94512,1.92972 -3.86073,1.92514 -9.01968,-0.0451 -3.78711,-1.44631 -4.39122,-2.18615 -6.73646,-8.25 -1.41695,-3.663666 -2.85274,-7.67371 -3.19063,-8.91121 -0.7632,-2.795071 -2.42386,-2.829242 -7.66064,-0.157633 -3.13296,1.598316 -5.10131,1.942418 -8.33621,1.457316 -4.08992,-0.613322 -4.31182,-0.505282 -6.48529,3.157633 -1.23776,2.085976 -3.43104,8.517684 -4.87396,14.292684 -1.48072,5.9263 -3.05908,10.2822 -3.62349,10 -1.67052,-0.83526 -0.55908,-9.91888 1.9432,-15.881504 5.43624,-12.953883 6.32961,-17.124742 5.81423,-27.144821 C 296.44903,55.25642 299.49448,38 303.07671,38 c 0.56394,0 1.71537,1.651473 2.55874,3.669939 1.6189,3.874571 1.41411,10.204623 -0.80913,25.010232 -1.75275,11.672409 0.36734,15.217365 6.74394,11.276406 3.87855,-2.397076 9.68384,-11.194796 12.0117,-18.203335 1.17195,-3.528423 2.06789,-4.772125 3.26647,-4.534381 1.82884,0.362763 1.84738,1.352633 0.3009,16.065057 -1.27157,12.096997 -0.22756,20.092396 3.05178,23.371741 3.80607,3.806069 7.24449,2.61503 13.33358,-4.618637 5.37299,-6.382956 7.23572,-7.666612 8.82251,-6.079817 0.69703,0.697026 0.48453,2.151484 -0.66721,4.566709 C 350.76049,90.473081 350,93.619013 350,95.514875 c 0,2.88006 0.42855,3.554581 2.60552,4.100965 3.7429,0.93941 8.80313,-1.816826 12.36642,-6.735804 5.78997,-7.992825 18.85131,-14.284391 19.82783,-9.550941 0.69309,3.359621 -0.82597,6.72626 -3.57736,7.928384 -3.84044,1.677944 -12.27975,8.840731 -11.63859,9.878141 0.29382,0.47541 1.60395,0.86438 2.9114,0.86438 1.66012,0 5.41285,-2.968507 12.44098,-9.84113 C 390.47129,86.746248 395,81.998901 395,81.60921 c 0,-0.389692 -0.61799,-1.923683 -1.37331,-3.40887 -3.86679,-7.603231 -2.47234,-9.293273 5.36973,-6.508016 4.76462,1.692242 4.82684,1.686735 8.40338,-0.743729 1.98176,-1.346727 3.81196,-3.123595 4.06709,-3.948595 0.69925,-2.261063 0.67512,-8.669047 -0.0628,-16.66878 -0.65509,-7.102041 0.9511,-19.814697 2.63498,-20.855393 0.44438,-0.274643 1.52486,-2.657711 2.40106,-5.295705 1.70028,-5.119041 8.31957,-12.443173 12.33459,-13.648002 1.7725,-0.531893 3.04207,0.08471 5.75,2.792635 C 438.01017,16.810166 439.17304,21 436.65499,21 c -0.73976,0 -2.1595,-0.9 -3.15499,-2 -0.99549,-1.1 -2.81861,-2 -4.0514,-2 -2.68913,0 -8.14122,5.870556 -9.07204,9.76834 -0.35878,1.502413 -1.07432,3.268778 -1.59008,3.925256 -1.77191,2.255346 -3.76276,11.813531 -3.77461,18.122145 C 414.99897,55.679388 416.18264,59 418.64217,59 c 1.14058,0 1.34835,0.480118 0.75731,1.75 -1.26247,2.712495 -0.93899,8.436944 0.66397,11.75 2.13418,4.411027 7.82554,4.610495 16.72769,0.586262 C 442.90052,70.324503 457.48416,66 460.68834,66 c 2.25097,0 1.4346,2.622957 -1.18834,3.818046 -4.29105,1.955134 -3.13885,4.646786 3.45904,8.080612 7.01954,3.653274 10.77861,3.872096 16.5972,0.966153 3.34861,-1.672379 4.63557,-3.078542 5.93741,-6.487363 2.21599,-5.80248 6.82768,-9.018841 12.17689,-8.492602 0.6438,0.06333 1.47515,1.501982 1.84743,3.196993 0.53098,2.417497 0.19066,3.59941 -1.57871,5.482813 -1.24058,1.320535 -3.11058,2.672336 -4.15557,3.004001 -1.36045,0.431791 -1.81247,1.359548 -1.59183,3.267187 0.64119,5.543734 13.16006,5.94127 25.55371,0.811458 8.04388,-3.32941 13.65562,-4.073745 15.34711,-2.035622 1.14189,1.375887 0.86998,1.970322 -1.95648,4.277164 -2.86311,2.336753 -3.24137,3.186102 -2.95944,6.645176 0.29149,3.576376 0.61795,3.999534 3.32324,4.307506 1.65,0.187838 4.35,-0.326522 6,-1.143021 1.65,-0.8165 4.575,-2.056648 6.5,-2.755885 1.925,-0.699237 5.98677,-2.774164 9.02615,-4.610949 3.32096,-2.006945 7.11191,-3.437787 9.5,-3.585638 L 566.5,80.5 l -0.30906,4.835393 c -0.57712,9.029465 3.85948,11.827593 12.37123,7.802426 2.16581,-1.024199 5.6392,-2.123158 7.71864,-2.44213 2.07945,-0.318971 5.18609,-1.28099 6.90364,-2.137819 4.58628,-2.287937 6.37293,-1.952543 10.77255,2.02225 2.89193,2.612679 4.51406,3.405147 6.00288,2.932612 C 611.08195,93.156603 612.9,93.150874 614,93.5 c 1.63235,0.518086 2,1.513034 2,5.4124 0,6.16671 2.35057,8.61962 7.35952,7.67993 4.65112,-0.87255 5.82973,-2.55666 5.07823,-7.256244 -0.47289,-2.957317 -0.18092,-4.422507 1.22031,-6.123737 l 1.84194,-2.236296 3.27493,2.012433 c 1.8012,1.106839 3.69779,3.124658 4.21463,4.484045 0.51683,1.359386 2.01377,2.741179 3.32651,3.070659 3.48147,0.8738 13.47988,-2.293396 14.75368,-4.673513 0.78587,-1.468426 1.89223,-1.906054 4.24232,-1.67808 2.63313,0.255432 3.26581,0.809512 3.68356,3.225905 0.6929,4.008028 1.96132,4.120708 6.81417,0.605318 C 674.10489,96.360269 676.67272,95 677.51609,95 c 1.79429,0 3.81018,4.644344 3.13559,7.22397 -0.25649,0.98084 0.32274,2.75782 1.28718,3.94885 1.74763,2.15823 1.77005,2.15935 6.65734,0.33082 6.95126,-2.60074 13.27942,-2.53324 16.72674,0.17842 2.76696,2.1765 2.77391,2.17677 6.97339,0.27027 2.31202,-1.04962 5.907,-1.91829 7.98885,-1.93037 5.93987,-0.0345 8.3582,2.22887 10.9371,10.2361 1.26099,3.91525 3.52168,8.39735 5.07321,10.05827 3.07139,3.28793 2.93236,5.68367 -0.32985,5.68367 -4.70483,0 -6.65387,-2.44653 -10.98442,-13.78822 -0.69053,-1.80852 -2.06422,-3.72102 -3.05263,-4.25 -2.56001,-1.37007 -7.01262,-1.1287 -9.92859,0.53822 -3.90639,2.2331 -8.80471,1.84212 -12.14611,-0.96949 l -2.93483,-2.4695 -5.70953,2.60826 c -9.79563,4.4749 -12.2172,4.09157 -15.60814,-2.47072 -2.20392,-4.26512 -3.81425,-4.79995 -8.19425,-2.72151 -4.02193,1.90853 -7.76628,1.41257 -10.90714,-1.44474 -1.93725,-1.76235 -2.21607,-1.74858 -8.88619,0.43873 -5.55167,1.82055 -7.52745,2.06137 -10.19515,1.24263 -2.72108,-0.83513 -3.80728,-0.67846 -6.11381,0.8818 -8.37844,5.66765 -14.42259,5.94176 -19.33181,0.87673 -3.09296,-3.19113 -3.80361,-3.47301 -7.44616,-2.95353 -3.94396,0.56246 -4.1287,0.4496 -8.97163,-5.48096 -4.7373,-5.801217 -5.09391,-6.028238 -8.5,-5.411275 -1.95539,0.35419 -5.35525,1.563222 -7.55525,2.686738 -2.45609,1.254299 -6.05984,2.070567 -9.33668,2.114797 -4.4567,0.0602 -5.65339,-0.31874 -7.25735,-2.297819 -1.05637,-1.303423 -2.19543,-4.088143 -2.53126,-6.188268 -0.33582,-2.100125 -1.1915,-4.041326 -1.9015,-4.313781 -0.71001,-0.272455 -3.46944,0.891556 -6.13207,2.58669 C 544.3806,95.282778 533.77147,100 530.33398,100 c -4.59537,0 -8.32988,-3.554939 -8.68711,-8.269373 -0.46059,-6.078599 -1.19829,-6.273435 -13.32092,-3.518244 -12.0872,2.747137 -15.90748,2.408692 -20.38067,-1.805551 C 483.59956,82.312679 478,84.117264 478,89.611921 c 0,3.094622 -3.50584,7.919552 -7.58726,10.442009 -4.32161,2.6709 -17.44388,4.03413 -23.63856,2.45573 -8.80153,-2.24263 -14.00958,-7.278849 -16.55589,-16.00966 -1.00086,-3.43173 -4.81182,-4.722825 -5.86205,-1.98597 -0.34915,0.909866 0.0753,6.003928 0.94326,11.320136 2.0377,12.481014 0.7567,20.046304 -3.412,20.150524 -1.02862,0.0257 -8.14592,-5.91495 -9.81638,-8.19354 C 411.207,106.61246 407.8,101.15008 404.5,95.652532 c -3.3,-5.497544 -6.57878,-10.186287 -7.28618,-10.419428 -0.70741,-0.233142 -3.37741,1.667332 -5.93336,4.223273 -2.55594,2.555942 -5.80215,5.336851 -7.21381,6.179798 -3.86584,2.308423 -6.56517,6.349955 -5.43635,8.139495 0.51674,0.81922 5.87382,2.99952 11.90462,4.84513 11.33277,3.46817 13.48076,4.95743 13.44284,9.32033 -0.0304,3.49537 -2.31702,6.05519 -10.12811,11.33805 -5.81822,3.93503 -7.5074,4.56941 -13.5,5.06997 -3.76731,0.31468 -7.52465,0.33923 -8.34965,0.0546 z m 15.64328,-7.0577 c 9.82089,-4.56415 13.23114,-9.29473 8.10672,-11.24536 -3.75598,-1.42972 -17.23163,-4.99412 -21.40214,-5.66102 -3.69213,-0.59039 -4.16597,-0.36061 -8.13419,3.94439 -4.72176,5.1225 -5.42854,8.89411 -2.37368,12.66671 3.54448,4.37724 14.7216,4.5159 23.80329,0.29528 z M 420,100.85781 c 0,-4.349086 -3.71937,-16.434326 -5.65293,-18.367883 -1.0684,-1.068399 -2.95187,-1.493636 -5.71999,-1.291419 -6.18915,0.45213 -5.95018,2.910478 1.3363,13.747029 C 414.19441,101.23798 416.65381,104 418.02579,104 419.57254,104 420,103.31965 420,100.85781 z m 44.87944,-4.414647 c 4.79247,-1.42321 5.21575,-1.787997 4.9315,-4.25 -0.30187,-2.614627 -0.50621,-2.695794 -7.00708,-2.783394 -5.66069,-0.07628 -7.24569,-0.509389 -10.25,-2.800891 C 450.59924,85.118015 449,83.394052 449,82.777849 449,80.834825 445.77676,78 443.56752,78 c -1.16738,0 -3.17367,0.736262 -4.45842,1.636139 -5.05444,3.540268 0.23522,14.571773 8.2184,17.139339 4.78062,1.537553 11.69632,1.406617 17.55194,-0.332315 z M 424.5874,52.276068 c 3.57864,-5.273413 4.11061,-5.475493 1.38487,-0.526068 -1.2873,2.3375 -2.69413,4.25 -3.12627,4.25 -0.43215,0 0.35148,-1.675769 1.7414,-3.723932 z M 429.01705,44.25 c 0.0304,-1.338744 5.9483,-10.788795 5.9659,-9.526751 C 435.00807,36.525148 430.73449,45 429.80073,45 c -0.4404,0 -0.79306,-0.3375 -0.78368,-0.75 z"
       id="path2822"
       style="fill:#6c6bb2" />
    <path
       d="m 213.65686,134.72286 c -4.06709,-1.36129 -8.49823,-11.54448 -9.33597,-21.455 -0.72197,-8.54081 -2.2017,-10.83409 -6.21465,-9.63144 -1.43343,0.42959 -7.56872,0.79348 -13.63396,0.80864 -9.90026,0.0247 -11.6516,-0.25241 -17.12985,-2.7109 -4.9531,-2.222818 -7.31896,-2.690988 -12.56439,-2.486314 -7.25459,0.28307 -8.60424,-0.428164 -12.48842,-6.581109 C 139.50809,88.2605 139.4928,88.259527 124,91.50237 c -4.675,0.978538 -9.36607,1.737864 -10.42461,1.687391 C 110.48482,93.042397 106,90.86519 106,89.5122 c 0,-0.923189 1.81816,-1.115071 7.03137,-0.742068 5.23771,0.374756 9.41688,-0.07153 16.38295,-1.749494 9.06629,-2.183864 9.46392,-2.399874 13.03334,-7.080415 2.23701,-2.933356 4.96467,-5.251229 6.9511,-5.906811 5.12141,-1.690219 18.10537,-1.013185 21.62568,1.127648 C 173.713,76.796068 174,77.473213 174,82.181551 c 0,3.980707 -0.61272,6.095103 -2.59531,8.955978 -1.42742,2.059767 -2.29888,4.224655 -1.93659,4.810863 2.42493,3.923617 14.78565,5.938828 25.52045,4.160688 7.88984,-1.306898 11.39823,-3.668176 11.82486,-7.958595 0.26457,-2.660667 -0.12498,-3.324652 -2.5,-4.261262 -2.60332,-1.02664 -2.66406,-1.167924 -0.81341,-1.892021 1.83426,-0.717682 1.85498,-0.841727 0.25,-1.496855 -0.9625,-0.392879 -1.75,-1.167934 -1.75,-1.722346 0,-0.554411 1.15401,-0.251884 2.56447,0.672284 3.30508,2.165575 7.69508,1.260965 10.95809,-2.258039 1.72035,-1.855321 2.75199,-2.3177 3.50068,-1.569004 0.7487,0.748695 0.60699,1.438751 -0.48086,2.341584 C 215.10494,84.817653 217.16662,89 222.01036,89 223.81328,89 227,91.451578 227,92.838584 c 0,0.38265 -3.6171,1.980917 -8.038,3.551706 -10.42312,3.70344 -11.45361,5.38444 -10.04119,16.3798 1.48293,11.54429 2.05093,13.66163 4.48312,16.71189 1.50818,1.89144 3.21663,2.82335 5.3203,2.90207 2.19928,0.0823 2.82466,0.44742 2.15449,1.25789 -1.43855,1.73974 -4.07471,2.1343 -7.22186,1.08092 z M 158.58936,92.5 c 0.3451,-1.375 0.3451,-3.625 0,-5 -0.54648,-2.177338 -1.17353,-2.498024 -4.85841,-2.484687 -5.5018,0.01991 -6.96718,1.040609 -6.56103,4.570022 0.60869,5.289455 10.20844,7.739667 11.41944,2.914665 z m 10.23019,-5.25 C 169.07742,85.434307 168.6592,85 166.65288,85 c -2.56432,0 -3.71781,1.524013 -2.87829,3.802872 0.79353,2.154044 4.68878,0.955063 5.04496,-1.552872 z M 732.5,129.16017 c -2.10572,-1.28615 -3.55977,-3.4462 -4.87786,-7.24627 C 724.44017,112.74024 723.6976,112 717.67695,112 c -2.90232,0 -5.73767,0.46072 -6.30078,1.02383 -0.5631,0.5631 -2.66876,1.08567 -4.67924,1.16125 -2.88758,0.10855 -4.10919,-0.43947 -5.8157,-2.60895 -1.83525,-2.33314 -2.66091,-2.65244 -5.48747,-2.12218 -1.82994,0.3433 -5.16071,1.66565 -7.4017,2.93856 -6.48162,3.68163 -12.75102,1.26265 -10.00855,-3.86169 1.20938,-2.25976 1.42372,-2.3101 3.64345,-0.85568 2.54638,1.66846 5.47022,1.30688 11.14958,-1.37879 3.76246,-1.77921 9.53566,-1.22878 12.17623,1.16091 2.28181,2.06501 4.16334,1.94617 9.38984,-0.59306 4.9705,-2.41485 10.32514,-2.03878 12.89081,0.90536 0.8294,0.95174 2.53987,4.88044 3.80104,8.73044 1.39764,4.26659 3.38013,8.01618 5.07696,9.60233 2.09476,1.95811 2.49981,2.88644 1.63625,3.75 -1.49604,1.49604 -1.71163,1.4676 -5.24767,-0.69216 z M 612.49661,108.99706 c -3.75721,-3.25183 -5.12899,-3.8845 -7.31082,-3.37178 -1.47719,0.34713 -2.94383,0.68595 -3.25921,0.75294 -0.31539,0.067 -2.49554,-2.12822 -4.84479,-4.87822 -2.34926,-2.75 -4.95917,-5.540159 -5.79981,-6.200353 -1.57971,-1.240613 -6.28569,-0.784703 -9.63934,0.933845 -2.42441,1.242371 -4.28631,-0.454406 -2.30394,-2.099622 0.7829,-0.649752 4.06447,-1.868569 7.29238,-2.708483 3.22791,-0.839913 6.86559,-2.179226 8.08374,-2.976251 3.13799,-2.053165 3.6289,-1.911868 8.74675,2.517601 3.77255,3.265117 4.98652,3.813396 6.86344,3.099793 3.86098,-1.467942 5.7841,0.398968 5.06209,4.914149 -0.52965,3.312251 -0.23463,4.262701 2.02432,6.521651 2.19029,2.19028 3.1976,2.52678 5.86646,1.95971 5.3472,-1.13616 6.68478,-2.98171 6.04937,-8.346771 -0.42331,-3.574195 -0.17394,-4.99762 1.05412,-6.016817 1.35238,-1.122371 2.00433,-1.075749 4.09281,0.292676 1.36631,0.895239 3.21147,3.034101 4.10037,4.753027 l 1.61616,3.125315 6.90465,-0.64171 c 5.52387,-0.51339 6.90464,-0.36485 6.90464,0.74281 0,1.9486 -1.73863,3.08185 -7.58269,4.94243 -3.96615,1.2627 -5.90848,1.39017 -8.84183,0.58023 -3.32268,-0.91744 -4.18389,-0.7489 -7.41731,1.45154 -3.07278,2.09112 -9.8126,4.62914 -12.34735,4.64965 -0.37905,0.003 -2.77044,-1.79574 -5.31421,-3.99736 z M 378.5,110.40545 c -2.75,-0.80206 -6.4625,-1.2497 -8.25,-0.99474 -2.69616,0.38455 -3.25,0.13736 -3.25,-1.45053 0,-1.05274 -1.12173,-2.64906 -2.49274,-3.54738 -2.43313,-1.59425 -3.82099,-1.57968 -12.07708,0.1268 -2.44967,0.50633 -3.73253,0.0769 -6.35037,-2.1259 -3.27065,-2.752068 -3.29056,-2.755013 -6.59506,-0.97542 -3.62202,1.95059 -4.97214,1.62994 -5.75586,-1.367 -0.40006,-1.529834 0.12428,-2.099758 2.38958,-2.5973 3.09923,-0.680705 3.13097,-0.706439 9.67931,-7.846695 4.68163,-5.10482 7.15848,-5.377166 4.64177,-0.510394 -0.85421,1.651864 -1.41506,4.663826 -1.24633,6.693249 0.29115,3.501868 0.50439,3.706063 4.18542,4.007895 5.4518,0.447025 8.84474,-1.262444 12.3357,-6.215111 5.40767,-7.67192 16.08328,-13.178672 17.64729,-9.102924 0.89287,2.326779 -0.32943,4.43199 -3.53599,6.090166 -1.6126,0.833908 -3.76083,2.279765 -4.77384,3.213015 -1.01301,0.933251 -3.01329,2.674567 -4.44507,3.869592 -3.79981,3.171497 -2.53412,5.714957 2.50741,5.038747 3.09796,-0.41553 3.92444,-0.16534 4.39962,1.33183 0.37667,1.18679 2.55072,2.41489 6.10315,3.44761 3.3437,0.97204 5.36256,2.07796 5.12345,2.80659 -0.57071,1.73911 -4.50535,1.78057 -10.24036,0.1079 z m 280.15499,-5.23419 c -1.95762,-2.16315 -2.08076,-4.14268 -0.47671,-7.663197 1.62939,-3.57612 4.24049,-2.835859 4.63995,1.31545 0.17503,1.818927 -0.15177,3.873447 -0.72621,4.565607 -0.73285,0.88304 -0.69354,1.60936 0.13177,2.43467 0.90161,0.90161 0.81551,1.17621 -0.3688,1.17621 -0.84976,0 -2.28976,-0.82293 -3.2,-1.82874 z m 11.59501,0.0965 c -2.3375,-0.21053 -4.25,-0.81805 -4.25,-1.35004 0,-1.25338 4.96734,-3.14426 6.60703,-2.51505 1.40234,0.53813 3.92225,4.69941 2.67815,4.42259 -0.43185,-0.0961 -2.69768,-0.34696 -5.03518,-0.5575 z m -226.99077,-4.927 C 437.92933,98.453914 432.57428,92.337754 431.08958,86.441477 430.16123,82.754656 429.56968,82 427.60805,82 c -3.90234,0 -4.71385,2.011916 -3.98306,9.874887 C 424.18374,97.8868 424.04862,99 422.76018,99 c -0.83987,0 -1.77345,-1.0125 -2.07464,-2.25 -2.21926,-9.118239 -3.00009,-11.383005 -4.79239,-13.900052 -1.68161,-2.361614 -2.7459,-2.847324 -6.21124,-2.834635 -4.91355,0.01799 -6.16069,0.678538 -7.1273,3.774963 l -0.71495,2.290275 -3.07246,-3.003901 c -2.69643,-2.63626 -2.90265,-3.208522 -1.6849,-4.675811 0.76316,-0.91955 1.39434,-2.398419 1.40263,-3.286374 0.0105,-1.120466 0.78003,-1.536357 2.51507,-1.359197 3.97828,0.406211 10.32954,-3.788127 11.58937,-7.65356 0.59915,-1.838328 1.83665,-3.760616 2.75,-4.271751 C 416.72014,61.057236 417,61.393381 417,63.824583 c 0,3.663607 2.6548,11.337033 4.27944,12.369285 2.48695,1.580134 8.39402,0.722493 14.31425,-2.07827 C 440.5099,71.789817 449.81504,69 452.65621,69 c 0.30677,0 0.30428,0.660589 -0.006,1.467975 -0.30982,0.807386 -0.13297,1.733944 0.39301,2.059017 0.52598,0.325073 0.95633,1.698058 0.95633,3.051077 0,2.14095 0.33251,2.376581 2.56353,1.81663 1.80436,-0.452866 4.05737,0.169645 7.60789,2.102084 4.08457,2.223099 5.85147,2.634862 9.28622,2.164078 6.63154,-0.908954 10.37797,-3.53349 12.71992,-8.910861 1.41311,-3.244629 2.66354,-4.75 3.94558,-4.75 1.03227,0 1.87686,0.652639 1.87686,1.45031 0,0.79767 0.7875,1.917151 1.75,2.487735 1.61679,0.958455 1.57168,1.177214 -0.5926,2.873836 -3.18729,2.498591 -2.5783,6.207017 1.3426,8.17564 3.9528,1.984641 12.47816,1.642273 19.75,-0.793135 l 5.75,-1.925729 0,2.365671 C 520,84.549768 519.47537,85 517.2434,85 c -1.51613,0 -4.32863,0.484232 -6.25,1.076071 -13.76866,4.241158 -17.55124,4.156659 -23.10454,-0.516135 -3.50785,-2.951661 -5.54748,-3.187773 -8.66635,-1.003232 C 477.70336,85.620753 477,87.13889 477,89.353756 c 0,2.433158 -0.94465,4.162775 -3.79216,6.943296 C 469.35579,100.05847 466,101.13458 466,98.608408 c 0,-0.765376 1.125,-1.673949 2.5,-2.019052 1.91693,-0.481119 2.5,-1.276053 2.5,-3.408408 C 471,89.086028 469.26875,88 462.74098,88 c -3.2931,0 -5.61109,-0.401149 -5.2929,-0.915984 0.87813,-1.420853 -5.54429,-7.403361 -9.44808,-8.800909 -4.85945,-1.739674 -6.32176,-1.604447 -9.47544,0.876233 -2.36089,1.857078 -2.6737,2.692055 -2.2347,5.965028 0.89962,6.707193 10.05047,15.382612 14.89261,14.11886 2.17006,-0.566363 2.21072,-0.497897 0.63896,1.075962 -1.9931,1.99576 -2.97876,1.99825 -8.5622,0.0216 z m 13.43462,1.01973 c -0.35171,-0.35171 -0.39562,-1.03405 -0.0976,-1.516312 C 457.23547,98.809989 459,99.701763 459,101.05902 c 0,1.07509 -1.35536,1.25229 -2.30615,0.3015 z M 566.81164,99.14006 C 564.66768,98.484543 562,95.793341 562,94.285995 c 0,-0.80266 0.49208,-1.099908 1.14886,-0.693992 0.83918,0.51864 0.96733,-0.658461 0.47541,-4.366764 -0.41443,-3.124124 -0.27938,-5.320361 0.35113,-5.710037 0.63443,-0.3921 1.0246,0.89452 1.0246,3.378728 0,5.378908 1.8009,9.102671 4.41052,9.119725 3.03693,0.01985 6.58948,1.096984 6.58948,1.997941 0,0.872035 -7.15358,1.750598 -9.18836,1.128464 z m -39.68922,-1.492553 c -0.71203,-0.857944 -0.96049,-2.100495 -0.55214,-2.761226 0.52244,-0.845321 0.10343,-1.034218 -1.41391,-0.637424 -1.27562,0.333582 -2.18451,0.09159 -2.22527,-0.592477 -0.0379,-0.636009 -0.22904,-2.364306 -0.42477,-3.84066 -0.26181,-1.974747 0.28506,-3.104239 2.0689,-4.273053 C 526.97964,83.967238 527,83.982796 527,87.39516 527,93.103764 527.75283,94 532.54797,94 c 2.3837,0 4.58639,-0.40838 4.89487,-0.907512 0.30848,-0.499131 3.14754,-1.695412 6.30902,-2.658403 3.16148,-0.96299 6.7205,-2.620337 7.90893,-3.682993 1.18843,-1.062656 2.90766,-1.778874 3.8205,-1.591597 C 557.20323,85.512766 545.2715,94 543.05292,94 c -0.62365,0 -2.39661,0.933555 -3.93991,2.074567 -3.7781,2.793273 -10.27093,3.64501 -11.99059,1.57294 z M 406.45888,94.933469 c -0.36253,-0.586592 -0.44468,-1.281 -0.18255,-1.543128 0.26212,-0.262129 0.74306,0.21781 1.06875,1.066531 0.67618,1.762107 0.0999,2.072058 -0.8862,0.476597 z M 306.25,85.337719 C 304.41837,84.598642 304.7078,81 306.59887,81 c 5.05779,0 10.66002,-5.285733 15.36822,-14.5 3.16051,-6.185323 4.75973,-2.111283 3.56189,9.073971 l -0.65133,6.082046 -3.58923,-0.119091 c -2.02873,-0.06731 -5.46041,0.877011 -7.89302,2.171991 -4.42837,2.357403 -5.01074,2.490155 -7.1454,1.628802 z M 58,84.118034 c 0,-0.55 0.45,-1.278115 1,-1.618034 0.55,-0.339919 1,-0.168034 1,0.381966 0,0.55 -0.45,1.278115 -1,1.618034 -0.55,0.339919 -1,0.168034 -1,-0.381966 z m 241.61032,-0.939529 c -0.92277,-1.493081 -0.46821,-13.148299 0.53702,-13.769568 1.33959,-0.827907 1.72573,-0.29359 2.46724,3.41398 C 303.11993,75.349626 302.91735,76 301.625,76 c -2.22419,0 -2.04278,2.311936 0.35142,4.478659 1.08703,0.983749 1.73547,2.178494 1.44098,2.654988 -0.67876,1.098264 -3.13813,1.127243 -3.80708,0.04486 z M 527,80.083333 C 527,78.854996 527.64569,78 528.57332,78 c 0.93124,0 1.44138,0.68037 1.25,1.667134 C 529.33677,82.175903 527,82.520378 527,80.083333 z M 63.403964,68.467024 C 61.12744,63.642938 61.249749,63 64.443982,63 c 1.721878,0 8.29816,5.798668 7.335855,6.468424 -3.250232,2.262133 -5.330009,3.52247 -5.752343,3.485898 -0.290122,-0.02512 -1.47071,-2.044407 -2.62353,-4.487298 z M 82,69.5 c 0,-0.916667 0.5625,-1.479167 1.25,-1.25 1.415672,0.471891 1.260051,2.079983 -0.25,2.583333 C 82.45,71.016667 82,70.416667 82,69.5 z m 8.25,0.0432 C 88.4625,69.016965 87,68.297809 87,67.945078 c 0,-0.352731 1.789925,-1.448473 3.977611,-2.434982 2.187686,-0.986509 4.243011,-2.629852 4.567388,-3.651874 C 95.869376,60.8362 96.590206,60 97.146843,60 c 1.349892,0 0.04651,6.194295 -1.578127,7.5 -0.684342,0.55 -1.429761,1.45 -1.656487,2 -0.270218,0.655506 -1.531836,0.670389 -3.662229,0.0432 z M 418.03327,23.204545 c -0.0431,-1.679012 4.49079,-6.213998 6.17128,-6.172742 0.86617,0.02126 0.73461,0.458074 -0.39703,1.318185 -0.93087,0.70751 -2.6034,2.380698 -3.71673,3.718197 -1.11334,1.337498 -2.03922,1.84886 -2.05752,1.13636 z"
       id="path2820"
       style="fill:#5a59a8" />
  </g>
</svg>
