<?xml version="1.0" encoding="UTF-8" standalone="no"?>
<!-- Created with Inkscape (http://www.inkscape.org/) -->

<svg
   xmlns:dc="http://purl.org/dc/elements/1.1/"
   xmlns:cc="http://creativecommons.org/ns#"
   xmlns:rdf="http://www.w3.org/1999/02/22-rdf-syntax-ns#"
   xmlns:svg="http://www.w3.org/2000/svg"
   xmlns="http://www.w3.org/2000/svg"
   xmlns:sodipodi="http://sodipodi.sourceforge.net/DTD/sodipodi-0.dtd"
   xmlns:inkscape="http://www.inkscape.org/namespaces/inkscape"
   width="210mm"
   height="297mm"
   id="svg2"
   version="1.1"
   inkscape:version="0.48.0 r9654"
   sodipodi:docname="Neues Dokument 1">
  <defs
     id="defs4" />
  <sodipodi:namedview
     id="base"
     pagecolor="#ffffff"
     bordercolor="#666666"
     borderopacity="1.0"
     inkscape:pageopacity="0.0"
     inkscape:pageshadow="2"
     inkscape:zoom="0.49497475"
     inkscape:cx="197.661"
     inkscape:cy="518.9698"
     inkscape:document-units="px"
     inkscape:current-layer="layer1"
     showgrid="false"
     inkscape:window-width="1278"
     inkscape:window-height="726"
     inkscape:window-x="0"
     inkscape:window-y="25"
     inkscape:window-maximized="1" />
  <metadata
     id="metadata7">
    <rdf:RDF>
      <cc:Work
         rdf:about="">
        <dc:format>image/svg+xml</dc:format>
        <dc:type
           rdf:resource="http://purl.org/dc/dcmitype/StillImage" />
        <dc:title></dc:title>
      </cc:Work>
    </rdf:RDF>
  </metadata>
  <g
     inkscape:label="Ebene 1"
     inkscape:groupmode="layer"
     id="layer1">
    <path
       style="fill:none;stroke:#000000;stroke-width:10;stroke-linecap:butt;stroke-linejoin:miter;stroke-opacity:1;stroke-miterlimit:4;stroke-dasharray:none"
       d="m 34.285714,396.6479 c 0,0 301.428576,47.14285 632.857146,1.42857"
       id="path3050"
       inkscape:connector-curvature="0"
       sodipodi:nodetypes="cc" />
    <path
       style="fill:none;stroke:#000000;stroke-width:5;stroke-linecap:butt;stroke-linejoin:miter;stroke-opacity:1;stroke-miterlimit:4;stroke-dasharray:none"
       d="m 349.51278,80.595435 c 0,0 54.54824,331.330035 2.02031,628.314885"
       id="path3820"
       inkscape:connector-curvature="0"
       sodipodi:nodetypes="cc" />
    <path
       style="fill:none;stroke:#000000;stroke-width:5;stroke-linecap:butt;stroke-linejoin:miter;stroke-miterlimit:4;stroke-opacity:1;stroke-dasharray:none"
       d="M 339.41125,714.97123 C 292.94424,646.28086 296.98484,581.6311 290.92393,415.96608 281.75406,165.32284 347.49248,80.595435 347.49248,80.595435 c 0,0 -98.13317,38.965915 -117.1777,167.685325 -3.74197,25.29144 -18.18275,36.36549 -20.20305,165.66501 -2.08342,133.33917 32.32488,208.09143 40.4061,218.19295 8.08122,10.10153 16.16244,58.58885 78.7919,80.81221"
       id="path3822"
       inkscape:connector-curvature="0"
       sodipodi:nodetypes="cscsssc" />
    <path
       style="fill:none;stroke:#000000;stroke-width:5;stroke-linecap:butt;stroke-linejoin:miter;stroke-miterlimit:4;stroke-opacity:1;stroke-dasharray:none"
       d="m 347.49248,76.554824 c 0,0 -80.81221,14.142136 -117.1777,64.649766 -36.36549,50.50762 -62.62946,107.07617 -62.62946,107.07617 0,0 -21.89511,76.82238 -24.24366,90.91373 -2.0203,12.12182 -2.0203,70.71067 -2.0203,70.71067 0,0 6.06091,68.69038 8.08122,86.87312 2.0203,18.18275 15.16673,62.65835 22.22335,76.7716 12.12183,24.24366 14.14213,26.26396 38.3858,62.62945 5.71428,8.57142 32.32488,48.48733 42.42641,52.52794 10.10152,4.04061 76.77159,26.26396 76.77159,26.26396 C 265.6,692.86785 172.25428,671.19388 106.32911,592.99657 69.816891,549.6875 34.71276,493.2421 34.345187,399.80364 33.947778,298.78067 67.630832,229.24593 113.03752,181.41372 205.80029,83.695751 347.49248,76.554824 347.49248,76.554824 z"
       id="path3824"
       inkscape:connector-curvature="0"
       sodipodi:nodetypes="cscscsssscsssc" />
    <path
       style="fill:none;stroke:#000000;stroke-width:5;stroke-linecap:butt;stroke-linejoin:miter;stroke-miterlimit:4;stroke-opacity:1;stroke-dasharray:none"
       d="m 353.55339,78.575129 c 0,0 97.25742,19.995076 101.01526,339.411251 2.0203,171.72594 -42.42642,278.80211 -94.95434,299.00516 0,0 24.24366,2.0203 36.36549,-8.08122 12.12183,-10.10153 50.17478,-32.81034 58.58885,-42.42641 14.14214,-16.16244 42.4264,-70.71068 48.48732,-80.8122 6.06091,-10.10153 20.20305,-84.85282 20.20305,-84.85282 l 6.06091,-88.89342 c 0,0 2.04267,-49.20154 -6.06091,-86.87312 C 504.91559,239.77819 503.16101,237.91705 478.81231,181.61069 446.48742,106.8594 353.55339,78.575129 353.55339,78.575129 z"
       id="path3826"
       inkscape:connector-curvature="0"
       sodipodi:nodetypes="cscsssccssc" />
    <path
       style="fill:none;stroke:#000000;stroke-width:5;stroke-linecap:butt;stroke-linejoin:miter;stroke-miterlimit:4;stroke-opacity:1;stroke-dasharray:none"
       d="m 333.35034,716.99154 c -74.75129,2.02031 -167.68532,-84.85282 -167.68532,-84.85282 0,0 -28.28427,-38.38579 -42.42641,-64.64976 -7.48086,-13.89303 -28.284271,-74.75129 -28.284271,-74.75129 0,0 -8.08122,-68.57848 -8.08122,-86.87312 0,-18.18274 -2.604199,-40.95372 10.101525,-80.8122 C 122.13198,246.13256 123.23861,238.17923 163.64471,179.59038 225.25226,90.259428 353.55339,74.534519 353.55339,74.534519 c 0,0 313.71043,28.756701 317.1879,321.228511 3.38752,284.90613 -319.2082,319.2082 -319.2082,319.2082"
       id="path3828"
       inkscape:connector-curvature="0"
       sodipodi:nodetypes="csscscscsc" />
    <path
       style="fill:none;stroke:#000000;stroke-width:5;stroke-linecap:butt;stroke-linejoin:miter;stroke-miterlimit:4;stroke-opacity:1;stroke-dasharray:none"
       d="m 353.55339,76.554824 c 0,0 117.68659,31.320736 165.66502,107.076166 38.38579,60.60915 47.32653,61.20103 64.64976,145.46197 12.44954,60.55509 10.10153,60.60915 10.10153,80.8122 0,20.20306 -8.08122,78.7919 -12.12183,96.97465 -4.04061,18.18274 -24.24367,74.75129 -36.3655,92.93403 -12.12183,18.18275 -38.38579,50.50763 -54.54823,64.64977 -16.16244,14.14213 -135.36044,54.54823 -135.36044,54.54823 l 115.15739,-34.34518 86.87311,-58.58885 c 0,0 52.52794,-86.87312 56.56855,-96.97465 4.04061,-10.10152 20.9223,-111.39166 24.24366,-131.31983 4.04061,-24.24366 -18.18275,-92.93403 -20.20305,-109.09647 -2.02031,-16.16244 -38.3858,-84.85282 -72.73099,-117.1777 C 484.66346,114.26784 353.55339,76.554824 353.55339,76.554824 z"
       id="path3830"
       inkscape:connector-curvature="0"
       sodipodi:nodetypes="csssssscccssssc" />
    <path
       style="fill:none;stroke:#000000;stroke-width:5;stroke-linecap:butt;stroke-linejoin:miter;stroke-miterlimit:4;stroke-opacity:1;stroke-dasharray:none"
       d="m 42.426407,323.03205 c 0,0 268.700573,40.4061 622.253963,6.06091"
       id="path3832"
       inkscape:connector-curvature="0"
       sodipodi:nodetypes="cc" />
    <path
       style="fill:none;stroke:#000000;stroke-width:5;stroke-linecap:butt;stroke-linejoin:miter;stroke-miterlimit:4;stroke-opacity:1;stroke-dasharray:none"
       d="m 62.629458,256.36198 c 0,0 268.700572,30.30457 577.807252,2.0203"
       id="path3834"
       inkscape:connector-curvature="0"
       sodipodi:nodetypes="cc" />
    <path
       style="fill:none;stroke:#000000;stroke-width:5;stroke-linecap:butt;stroke-linejoin:miter;stroke-miterlimit:4;stroke-opacity:1;stroke-dasharray:none"
       d="m 96.974644,193.73252 c 0,0 208.091426,26.26397 501.035666,0"
       id="path3836"
       inkscape:connector-curvature="0"
       sodipodi:nodetypes="cc" />
    <path
       style="fill:none;stroke:#000000;stroke-width:5;stroke-linecap:butt;stroke-linejoin:miter;stroke-miterlimit:4;stroke-opacity:1;stroke-dasharray:none"
       d="m 161.62441,135.14367 c 0,0 137.38074,28.28427 369.71583,0"
       id="path3838"
       inkscape:connector-curvature="0"
       sodipodi:nodetypes="cc" />
  </g>
</svg>
