<?xml version="1.0" encoding="UTF-8" standalone="no"?>
<svg
   xmlns:dc="http://purl.org/dc/elements/1.1/"
   xmlns:cc="http://creativecommons.org/ns#"
   xmlns:rdf="http://www.w3.org/1999/02/22-rdf-syntax-ns#"
   xmlns:svg="http://www.w3.org/2000/svg"
   xmlns="http://www.w3.org/2000/svg"
   id="svg2"
   version="1.1"
   viewBox="0 0 720 681"
   height="681pt"
   width="720pt">
  <metadata
     id="metadata71">
    <rdf:RDF>
      <cc:Work
         rdf:about="">
        <dc:format>image/svg+xml</dc:format>
        <dc:type
           rdf:resource="http://purl.org/dc/dcmitype/StillImage" />
        <dc:title></dc:title>
      </cc:Work>
    </rdf:RDF>
  </metadata>
  <defs
     id="defs69" />
  <g
     transform="translate(-8.2892166,1.5303169)"
     id="surface1">
    <path
       id="path5"
       d="m 116.53516,529.85937 1.05468,8.20313 3.8086,0 -3.8086,-27.24609 -4.45312,0 -15.527345,27.24609 3.691405,0 4.57031,-8.20313 z m -0.35157,-2.87109 -8.61328,0 7.08985,-12.48047 z m 0,0"
       style="fill:#000000;fill-opacity:1;fill-rule:nonzero;stroke:none" />
    <path
       id="path7"
       d="m 588.191,427.0184 12.36328,0 c 3.04688,0 5.39063,-1.05468 7.38282,-3.28125 1.64062,-1.69921 2.46093,-3.92578 2.46093,-6.38671 0,-2.28516 -0.99609,-3.57422 -3.63281,-4.6875 3.22266,-1.46485 5.09766,-4.16016 5.09766,-7.5 0,-1.40625 -0.41016,-2.46094 -1.34766,-3.51563 -1.28906,-1.34766 -2.87109,-1.875 -5.44922,-1.875 l -11.07422,0 z m 6.85547,-15.52734 1.81641,-8.67187 6.73828,0 c 3.16406,0 4.62891,0.99609 4.62891,3.22265 0,1.40625 -0.52735,2.75391 -1.40625,3.75 -1.11329,1.17188 -2.63672,1.69922 -5.09766,1.69922 z m -2.69531,12.48047 2.05078,-9.375 8.4375,0 c 2.57813,0 3.92578,1.17187 3.92578,3.39844 0,1.40625 -0.41015,2.69531 -1.23047,3.80859 -1.17187,1.52344 -2.57812,2.16797 -4.6875,2.16797 z m 0,0"
       style="fill:#000000;fill-opacity:1;fill-rule:nonzero;stroke:none" />
    <path
       id="path9"
       d="m 324.42355,73.538263 c -0.11719,-2.226562 -0.46875,-3.632812 -1.17188,-4.863281 -1.52343,-2.636719 -4.21875,-4.042969 -7.73437,-4.042969 -4.33594,0 -7.96875,1.757813 -10.89844,5.273438 -2.92969,3.574219 -4.80469,8.730469 -4.80469,13.417969 0,2.578124 0.76172,4.921874 2.16797,6.679687 1.69922,2.167969 4.04297,3.222656 7.38281,3.222656 3.98438,0 7.38282,-1.464843 9.84375,-4.160156 1.46485,-1.582031 2.63672,-3.632813 3.92579,-6.679687 l -3.69141,0 c -0.9375,2.167968 -1.52344,3.28125 -2.16797,4.160156 -1.58203,2.226562 -4.45312,3.632812 -7.38281,3.632812 -3.86719,0 -6.44531,-3.046875 -6.44531,-7.558594 0,-3.398437 1.11328,-7.148437 2.98828,-9.960937 2.28515,-3.398437 5.03906,-4.980469 8.49609,-4.980469 3.75,0 5.625,1.816406 5.91797,5.859375 z m 0,0"
       style="fill:#000000;fill-opacity:1;fill-rule:nonzero;stroke:none" />
    <path
       id="path11"
       transform="matrix(3.75,0,0,-3.75,242.8725,446.45625)"
       d="M -28.348292,-28.347083 90.710042,8.33333e-4 19.843375,85.039375 Z m 0,0"
       style="fill:#f0f0f0;fill-opacity:1;fill-rule:nonzero;stroke:#000000;stroke-width:0.59776002;stroke-linecap:butt;stroke-linejoin:miter;stroke-miterlimit:10;stroke-opacity:1" />
    <path
       id="path13"
       transform="matrix(3.75,0,0,-3.75,242.8725,446.45625)"
       d="m -11.801417,-24.409583 c -1.25,5.254166 -4.921875,9.605208 -9.894791,11.714583"
       style="fill:none;stroke:#000000;stroke-width:1.19553006;stroke-linecap:butt;stroke-linejoin:miter;stroke-miterlimit:10;stroke-opacity:1" />
    <path
       id="path15"
       d="m 136.56641,552.75781 62.05078,-14.76562 c -4.6875,-19.69922 -18.45703,-36.01953 -37.10547,-43.92969 z m 0,0"
       style="fill:#b0ffb0;fill-opacity:1;fill-rule:nonzero;stroke:none" />
    <path
       id="path17"
       d="m 167.14244,529.91455 c -1.875,2.69531 -4.04297,5.5664 -6.21094,5.5664 -2.57812,0 -3.22266,-3.57422 -3.22266,-5.74219 0,-2.7539 0.87891,-7.26562 4.33594,-7.26562 2.8125,0 3.8086,3.22266 5.09766,7.44141 z m 5.80078,-9.60938 -3.51563,6.03516 -0.35156,-0.0586 c -0.58594,-2.05078 -1.875,-5.97656 -5.15625,-5.97656 -5.68359,0 -8.67187,6.03516 -8.67187,11.19141 0,2.57812 0.9375,6.79687 3.92578,6.79687 2.28515,0 4.51172,-1.875 5.85937,-3.51562 l 2.40235,-2.92969 0.41015,0.0586 1.75782,5.03907 c 0.17578,0.9375 1.11328,1.64062 1.99218,1.64062 1.28907,0 3.10547,-1.58203 5.625,-3.57422 l -0.23437,-0.76172 -0.35156,0 c -1.05469,0.76172 -2.34375,1.69922 -3.28125,1.69922 -1.81641,0 -3.04688,-4.74609 -3.69141,-6.97265 0,-0.0586 3.45703,-5.21485 5.21484,-7.79297 z m 0,0"
       style="fill:#000000;fill-opacity:1;fill-rule:nonzero;stroke:none" />
    <path
       id="path19"
       transform="matrix(3.75,0,0,-3.75,242.8725,446.45625)"
       d="M 79.823583,13.066458 C 74.863167,8.934167 72.667333,2.344583 74.163167,-3.936667"
       style="fill:none;stroke:#000000;stroke-width:1.19553006;stroke-linecap:butt;stroke-linejoin:miter;stroke-miterlimit:10;stroke-opacity:1" />
    <path
       id="path21"
       d="m 583.03516,446.45703 -40.82422,-49 c -18.60157,15.49609 -26.83594,40.21094 -21.22266,63.76563 z m 0,0"
       style="fill:#b0ffb0;fill-opacity:1;fill-rule:nonzero;stroke:none" />
    <path
       id="path23"
       d="m 544.55078,428.23437 0.0586,-0.46875 c 2.40235,-0.9375 4.57032,-3.57421 4.57032,-6.38671 0,-2.8125 -2.28516,-5.03907 -5.09766,-5.03907 -3.92578,0 -6.62109,2.10938 -8.02734,5.15625 -0.82032,1.75782 -1.11328,4.62891 -1.17188,6.5625 -0.29297,7.08985 -0.17578,14.23828 -0.35156,21.32813 l 0.46875,0.58594 2.8125,-1.23047 c -0.23438,-4.6875 -0.35156,-9.375 -0.35156,-14.1211 0,-6.91406 -0.17578,-9.3164 0.64453,-12.59765 0.52734,-2.28516 1.875,-3.92578 4.39453,-3.92578 2.22656,0 3.75,2.05078 3.75,4.10156 0,3.98437 -2.98828,5.80078 -6.26953,5.80078 l -0.11719,1.34766 c 0.82031,-0.11719 1.58203,-0.11719 2.40234,-0.11719 3.63282,0 6.15235,2.16797 6.15235,5.91797 0,2.7539 -1.34766,6.5039 -4.51172,6.5039 -1.40625,0 -2.69531,-1.17187 -2.69531,-2.57812 0,-0.11719 0,-0.23438 0,-0.29297 l -0.46875,-0.23438 -1.81641,2.57813 c 0.76172,1.34766 2.05078,1.875 3.51563,1.875 4.80468,0 9.14062,-2.98828 9.14062,-8.14453 0,-1.81641 -0.76172,-3.63281 -1.99219,-4.98047 -1.17187,-1.17188 -3.22265,-1.58203 -5.03906,-1.64063 z m 0,0"
       style="fill:#000000;fill-opacity:1;fill-rule:nonzero;stroke:none" />
    <path
       id="path25"
       transform="matrix(3.75,0,0,-3.75,242.8725,446.45625)"
       d="m 13.191292,69.387292 c 5.866666,-2.492709 12.636458,-1.495834 17.534375,2.585416"
       style="fill:none;stroke:#000000;stroke-width:1.19553006;stroke-linecap:butt;stroke-linejoin:miter;stroke-miterlimit:10;stroke-opacity:1" />
    <path
       id="path27"
       d="m 317.28516,127.55859 -24.94532,58.69532 c 22,9.34765 47.38672,5.60937 65.75782,-9.69532 z m 0,0"
       style="fill:#b0ffb0;fill-opacity:1;fill-rule:nonzero;stroke:none" />
    <path
       id="path29"
       d="m 331.62891,157.08984 -0.46875,0.17578 c -1.40625,3.57422 -4.45313,9.55079 -6.91407,14.0625 l -0.29297,-0.11718 c 0,-5.44922 -0.8789,-14.0625 -6.44531,-14.0625 -2.87109,0 -4.45312,1.23047 -6.32812,4.16015 l 0.58593,0.41016 0.87891,-0.99609 c 0.76172,-0.87891 2.22656,-1.11329 3.22266,-1.11329 0.99609,0 1.93359,0.46875 2.63672,1.17188 2.7539,2.69531 3.86718,12.42187 3.86718,13.88672 l -1.93359,6.15234 c 0.58594,0.52735 1.28906,0.9961 2.05078,1.23047 l 1.28906,-0.9375 c 0.17578,-1.93359 0.29297,-4.04297 0.29297,-5.97656 0,-0.29297 0,-0.58594 0,-0.87891 l 0.64453,-1.58203 c 2.8125,-5.03906 6.15235,-9.66797 9.14063,-14.58984 z m 0,0"
       style="fill:#000000;fill-opacity:1;fill-rule:nonzero;stroke:none" />
    <path
       id="path31"
       transform="matrix(3.75,0,0,-3.75,242.8725,446.45625)"
       d="m -35.000375,-43.999167 c 8.644792,-3.676041 18.632292,0.355209 22.304167,9 1.421875,3.34375 1.734375,7.054167 0.894791,10.589584"
       style="fill:none;stroke:#000000;stroke-width:1.19553006;stroke-linecap:butt;stroke-linejoin:miter;stroke-miterlimit:10;stroke-opacity:1" />
    <path
       id="path33"
       d="m 136.56641,552.75781 -24.94532,58.69922 c 32.41797,13.78125 69.875,-1.33594 83.64063,-33.75 5.33594,-12.53906 6.50781,-26.45703 3.35547,-39.71484 z m 0,0"
       style="fill:#ffb0b0;fill-opacity:1;fill-rule:nonzero;stroke:none" />
    <path
       id="path35"
       d="m 156.55381,584.35714 c -1.875,2.69532 -4.04297,5.56641 -6.21093,5.56641 -2.57813,0 -3.22266,-3.57422 -3.22266,-5.74219 0,-2.7539 0.87891,-7.26562 4.33594,-7.26562 2.8125,0 3.80859,3.22265 5.09765,7.4414 z m 5.80078,-9.60937 -3.51562,6.03515 -0.35156,-0.0586 c -0.58594,-2.05078 -1.875,-5.97656 -5.15625,-5.97656 -5.6836,0 -8.67188,6.03515 -8.67188,11.1914 0,2.57813 0.9375,6.79688 3.92578,6.79688 2.28516,0 4.51172,-1.875 5.85938,-3.51563 l 2.40234,-2.92968 0.41016,0.0586 1.75781,5.03906 c 0.17578,0.9375 1.11328,1.64063 1.99219,1.64063 1.28906,0 3.10547,-1.58203 5.625,-3.57422 l -0.23438,-0.76172 -0.35156,0 c -1.05469,0.76172 -2.34375,1.69922 -3.28125,1.69922 -1.81641,0 -3.04687,-4.74609 -3.69141,-6.97266 0,-0.0586 3.45704,-5.21484 5.21485,-7.79297 z m 0,0"
       style="fill:#000000;fill-opacity:1;fill-rule:nonzero;stroke:none" />
    <path
       id="path37"
       d="m 173.65147,566.34542 c 0.23437,-0.41015 0.23437,-0.64453 0.23437,-0.82031 0,-0.82031 -0.70312,-1.40625 -1.52343,-1.40625 -0.9961,0 -1.28907,0.82031 -1.40625,1.23047 l -3.45703,11.30859 c -0.0586,0.0586 -0.17579,0.35157 -0.17579,0.41016 0,0.29297 0.82032,0.58594 1.05469,0.58594 0.17578,0 0.17578,-0.0586 0.35156,-0.46875 z m 0,0"
       style="fill:#000000;fill-opacity:1;fill-rule:nonzero;stroke:none" />
    <path
       id="path39"
       transform="matrix(3.75,0,0,-3.75,242.8725,446.45625)"
       d="m 74.163167,-3.936667 c 2.176041,-9.1375 11.34375,-14.78125 20.484375,-12.609375 2.551041,0.609375 4.930208,1.8 6.945828,3.480209"
       style="fill:none;stroke:#000000;stroke-width:1.19553006;stroke-linecap:butt;stroke-linejoin:miter;stroke-miterlimit:10;stroke-opacity:1" />
    <path
       id="path41"
       d="m 583.03516,446.45703 -62.04688,14.76563 c 8.15625,34.26171 42.53906,55.42968 76.8125,47.28125 9.56641,-2.28125 18.48828,-6.75 26.04688,-13.05079 z m 0,0"
       style="fill:#ffb0b0;fill-opacity:1;fill-rule:nonzero;stroke:none" />
    <path
       id="path43"
       d="m 569.2925,473.39003 0.0586,-0.46875 c 2.40234,-0.9375 4.57031,-3.57422 4.57031,-6.38672 0,-2.8125 -2.28516,-5.03907 -5.09766,-5.03907 -3.92578,0 -6.62109,2.10938 -8.02734,5.15625 -0.82031,1.75782 -1.11328,4.62891 -1.17188,6.5625 -0.29297,7.08985 -0.17578,14.23829 -0.35156,21.32813 l 0.46875,0.58594 2.8125,-1.23047 c -0.23437,-4.6875 -0.35156,-9.375 -0.35156,-14.1211 0,-6.91406 -0.17578,-9.3164 0.64453,-12.59765 0.52734,-2.28516 1.875,-3.92578 4.39453,-3.92578 2.22656,0 3.75,2.05078 3.75,4.10156 0,3.98437 -2.98828,5.80078 -6.26953,5.80078 l -0.11719,1.34766 c 0.82031,-0.11719 1.58203,-0.11719 2.40235,-0.11719 3.63281,0 6.15234,2.16797 6.15234,5.91797 0,2.7539 -1.34766,6.5039 -4.51172,6.5039 -1.40625,0 -2.69531,-1.17187 -2.69531,-2.57812 0,-0.11719 0,-0.23438 0,-0.29297 l -0.46875,-0.23437 -1.81641,2.57812 c 0.76172,1.34766 2.05078,1.875 3.51563,1.875 4.80468,0 9.14062,-2.98828 9.14062,-8.14453 0,-1.81641 -0.76172,-3.63281 -1.99219,-4.98047 -1.17187,-1.17187 -3.22265,-1.58203 -5.03906,-1.64062 z m 0,0"
       style="fill:#000000;fill-opacity:1;fill-rule:nonzero;stroke:none" />
    <path
       id="path45"
       d="m 587.36281,461.64784 c 0.23438,-0.41016 0.23438,-0.64453 0.23438,-0.82031 0,-0.82032 -0.70313,-1.40625 -1.52344,-1.40625 -0.99609,0 -1.28906,0.82031 -1.40625,1.23046 l -3.45703,11.3086 c -0.0586,0.0586 -0.17578,0.35156 -0.17578,0.41015 0,0.29297 0.82031,0.58594 1.05469,0.58594 0.17578,0 0.17578,-0.0586 0.35156,-0.46875 z m 0,0"
       style="fill:#000000;fill-opacity:1;fill-rule:nonzero;stroke:none" />
    <path
       id="path47"
       transform="matrix(3.75,0,0,-3.75,242.8725,446.45625)"
       d="m 30.725667,71.972708 c 7.21875,6.0125 8.195833,16.734375 2.184375,23.953125 -1.73125,2.075 -3.930209,3.711459 -6.414584,4.765627"
       style="fill:none;stroke:#000000;stroke-width:1.19553006;stroke-linecap:butt;stroke-linejoin:miter;stroke-miterlimit:10;stroke-opacity:1" />
    <path
       id="path49"
       d="m 317.28516,127.55859 40.8125,49 c 27.07031,-22.54687 30.73046,-62.7539 8.1875,-89.824215 -6.49219,-7.777344 -14.73829,-13.917969 -24.05469,-17.871094 z m 0,0"
       style="fill:#ffb0b0;fill-opacity:1;fill-rule:nonzero;stroke:none" />
    <path
       id="path51"
       d="m 358.10196,112.48947 -0.46875,0.17578 c -1.40625,3.57422 -4.45313,9.55078 -6.91406,14.0625 l -0.29297,-0.11719 c 0,-5.44922 -0.87891,-14.0625 -6.44531,-14.0625 -2.8711,0 -4.45313,1.23047 -6.32813,4.16016 l 0.58594,0.41016 0.8789,-0.9961 c 0.76172,-0.8789 2.22657,-1.11328 3.22266,-1.11328 0.99609,0 1.93359,0.46875 2.63672,1.17188 2.75391,2.69531 3.86719,12.42187 3.86719,13.88671 l -1.9336,6.15235 c 0.58594,0.52734 1.28907,0.99609 2.05078,1.23047 l 1.28907,-0.9375 c 0.17578,-1.9336 0.29297,-4.04297 0.29297,-5.97657 0,-0.29297 0,-0.58593 0,-0.8789 l 0.64453,-1.58203 c 2.8125,-5.03907 6.15234,-9.66797 9.14062,-14.58985 z m 0,0"
       style="fill:#000000;fill-opacity:1;fill-rule:nonzero;stroke:none" />
    <path
       id="path53"
       d="m 368.88321,104.14572 c 0.23437,-0.41016 0.23437,-0.64453 0.23437,-0.82031 0,-0.82032 -0.70312,-1.40625 -1.52343,-1.40625 -0.9961,0 -1.28907,0.82031 -1.40625,1.23047 l -3.45703,11.30859 c -0.0586,0.0586 -0.17579,0.35156 -0.17579,0.41016 0,0.29296 0.82032,0.58593 1.05469,0.58593 0.17578,0 0.17578,-0.0586 0.35156,-0.46875 z m 0,0"
       style="fill:#000000;fill-opacity:1;fill-rule:nonzero;stroke:none" />
    <path
       id="path55"
       transform="matrix(3.75,0,0,-3.75,242.8725,446.45625)"
       d="M -52.156625,-34.014792 114.51942,5.668542"
       style="fill:none;stroke:#000000;stroke-width:0.59776002;stroke-linecap:butt;stroke-linejoin:miter;stroke-miterlimit:10;stroke-opacity:1" />
    <path
       id="path57"
       transform="matrix(3.75,0,0,-3.75,242.8725,446.45625)"
       d="M 104.88192,-17.0075 5.667333,102.04771"
       style="fill:none;stroke:#000000;stroke-width:0.59776002;stroke-linecap:butt;stroke-linejoin:miter;stroke-miterlimit:10;stroke-opacity:1" />
    <path
       id="path59"
       transform="matrix(3.75,0,0,-3.75,242.8725,446.45625)"
       d="M 29.479833,107.71958 -37.98475,-51.023125"
       style="fill:none;stroke:#000000;stroke-width:0.59776002;stroke-linecap:butt;stroke-linejoin:miter;stroke-miterlimit:10;stroke-opacity:1" />
    <path
       id="path61"
       transform="matrix(3.75,0,0,-3.75,242.8725,446.45625)"
       d="m -27.750375,-28.347083 c 0,0.332291 -0.265625,0.597916 -0.597917,0.597916 -0.328125,0 -0.597916,-0.265625 -0.597916,-0.597916 0,-0.328125 0.269791,-0.597917 0.597916,-0.597917 0.332292,0 0.597917,0.269792 0.597917,0.597917 z m 0,0"
       style="fill:#7f7f7f;fill-opacity:1;fill-rule:nonzero;stroke:#000000;stroke-width:1.19553006;stroke-linecap:butt;stroke-linejoin:miter;stroke-miterlimit:10;stroke-opacity:1" />
    <path
       id="path63"
       transform="matrix(3.75,0,0,-3.75,242.8725,446.45625)"
       d="m 91.307958,8.33333e-4 c 0,0.328124667 -0.269791,0.596874667 -0.597916,0.596874667 -0.33125,0 -0.596875,-0.26875 -0.596875,-0.596874667 0,-0.332291333 0.265625,-0.597916333 0.596875,-0.597916333 0.328125,0 0.597916,0.265625 0.597916,0.597916333 z m 0,0"
       style="fill:#7f7f7f;fill-opacity:1;fill-rule:nonzero;stroke:#000000;stroke-width:1.19553006;stroke-linecap:butt;stroke-linejoin:miter;stroke-miterlimit:10;stroke-opacity:1" />
    <path
       id="path65"
       transform="matrix(3.75,0,0,-3.75,242.8725,446.45625)"
       d="m 20.441292,85.039375 c 0,0.332292 -0.269792,0.597917 -0.597917,0.597917 -0.332292,0 -0.597917,-0.265625 -0.597917,-0.597917 0,-0.328125 0.265625,-0.597917 0.597917,-0.597917 0.328125,0 0.597917,0.269792 0.597917,0.597917 z m 0,0"
       style="fill:#7f7f7f;fill-opacity:1;fill-rule:nonzero;stroke:#000000;stroke-width:1.19553006;stroke-linecap:butt;stroke-linejoin:miter;stroke-miterlimit:10;stroke-opacity:1" />
  </g>
</svg>
