<?xml version="1.0" encoding="UTF-8"?>
<svg xmlns="http://www.w3.org/2000/svg" xmlns:xlink="http://www.w3.org/1999/xlink" width="720pt" height="681pt" viewBox="0 0 720 681" version="1.1">
<g id="surface1">
<path style=" stroke:none;fill-rule:nonzero;fill:rgb(0%,0%,0%);fill-opacity:1;" d="M 116.535156 529.859375 L 117.589844 538.0625 L 121.398438 538.0625 L 117.589844 510.816406 L 113.136719 510.816406 L 97.609375 538.0625 L 101.300781 538.0625 L 105.871094 529.859375 Z M 116.183594 526.988281 L 107.570312 526.988281 L 114.660156 514.507812 Z M 116.183594 526.988281 "/>
<path style=" stroke:none;fill-rule:nonzero;fill:rgb(0%,0%,0%);fill-opacity:1;" d="M 600.652344 431.765625 L 613.015625 431.765625 C 616.0625 431.765625 618.40625 430.710938 620.398438 428.484375 C 622.039062 426.785156 622.859375 424.558594 622.859375 422.097656 C 622.859375 419.8125 621.863281 418.523438 619.226562 417.410156 C 622.449219 415.945312 624.324219 413.25 624.324219 409.910156 C 624.324219 408.503906 623.914062 407.449219 622.976562 406.394531 C 621.6875 405.046875 620.105469 404.519531 617.527344 404.519531 L 606.453125 404.519531 Z M 607.507812 416.238281 L 609.324219 407.566406 L 616.0625 407.566406 C 619.226562 407.566406 620.691406 408.5625 620.691406 410.789062 C 620.691406 412.195312 620.164062 413.542969 619.285156 414.539062 C 618.171875 415.710938 616.648438 416.238281 614.1875 416.238281 Z M 604.8125 428.71875 L 606.863281 419.34375 L 615.300781 419.34375 C 617.878906 419.34375 619.226562 420.515625 619.226562 422.742188 C 619.226562 424.148438 618.816406 425.4375 617.996094 426.550781 C 616.824219 428.074219 615.417969 428.71875 613.308594 428.71875 Z M 604.8125 428.71875 "/>
<path style=" stroke:none;fill-rule:nonzero;fill:rgb(0%,0%,0%);fill-opacity:1;" d="M 331.4375 61.550781 C 331.320312 59.324219 330.96875 57.917969 330.265625 56.6875 C 328.742188 54.050781 326.046875 52.644531 322.53125 52.644531 C 318.195312 52.644531 314.5625 54.402344 311.632812 57.917969 C 308.703125 61.492188 306.828125 66.648438 306.828125 71.335938 C 306.828125 73.914062 307.589844 76.257812 308.996094 78.015625 C 310.695312 80.183594 313.039062 81.238281 316.378906 81.238281 C 320.363281 81.238281 323.761719 79.773438 326.222656 77.078125 C 327.6875 75.496094 328.859375 73.445312 330.148438 70.398438 L 326.457031 70.398438 C 325.519531 72.566406 324.933594 73.679688 324.289062 74.558594 C 322.707031 76.785156 319.835938 78.191406 316.90625 78.191406 C 313.039062 78.191406 310.460938 75.144531 310.460938 70.632812 C 310.460938 67.234375 311.574219 63.484375 313.449219 60.671875 C 315.734375 57.273438 318.488281 55.691406 321.945312 55.691406 C 325.695312 55.691406 327.570312 57.507812 327.863281 61.550781 Z M 331.4375 61.550781 "/>
<path style="fill-rule:nonzero;fill:rgb(94.901961%,94.901961%,94.901961%);fill-opacity:1;stroke-width:0.59776;stroke-linecap:butt;stroke-linejoin:miter;stroke:rgb(0%,0%,0%);stroke-opacity:1;stroke-miterlimit:10;" d="M -28.348292 -28.347083 L 90.710042 0.000833333 L 19.843375 85.039375 Z M -28.348292 -28.347083 " transform="matrix(3.75,0,0,-3.75,242.8725,446.45625)"/>
<path style="fill:none;stroke-width:1.19553;stroke-linecap:butt;stroke-linejoin:miter;stroke:rgb(0%,0%,0%);stroke-opacity:1;stroke-miterlimit:10;" d="M -11.801417 -24.409583 C -13.051417 -19.155417 -16.723292 -14.804375 -21.696208 -12.695 " transform="matrix(3.75,0,0,-3.75,242.8725,446.45625)"/>
<path style=" stroke:none;fill-rule:nonzero;fill:rgb(69.803922%,100%,69.803922%);fill-opacity:1;" d="M 136.566406 552.757812 L 198.617188 537.992188 C 193.929688 518.292969 180.160156 501.972656 161.511719 494.0625 Z M 136.566406 552.757812 "/>
<path style=" stroke:none;fill-rule:nonzero;fill:rgb(0%,0%,0%);fill-opacity:1;" d="M 163.699219 532.847656 C 161.824219 535.542969 159.65625 538.414062 157.488281 538.414062 C 154.910156 538.414062 154.265625 534.839844 154.265625 532.671875 C 154.265625 529.917969 155.144531 525.40625 158.601562 525.40625 C 161.414062 525.40625 162.410156 528.628906 163.699219 532.847656 Z M 169.5 523.238281 L 165.984375 529.273438 L 165.632812 529.214844 C 165.046875 527.164062 163.757812 523.238281 160.476562 523.238281 C 154.792969 523.238281 151.804688 529.273438 151.804688 534.429688 C 151.804688 537.007812 152.742188 541.226562 155.730469 541.226562 C 158.015625 541.226562 160.242188 539.351562 161.589844 537.710938 L 163.992188 534.78125 L 164.402344 534.839844 L 166.160156 539.878906 C 166.335938 540.816406 167.273438 541.519531 168.152344 541.519531 C 169.441406 541.519531 171.257812 539.9375 173.777344 537.945312 L 173.542969 537.183594 L 173.191406 537.183594 C 172.136719 537.945312 170.847656 538.882812 169.910156 538.882812 C 168.09375 538.882812 166.863281 534.136719 166.21875 531.910156 C 166.21875 531.851562 169.675781 526.695312 171.433594 524.117188 Z M 169.5 523.238281 "/>
<path style="fill:none;stroke-width:1.19553;stroke-linecap:butt;stroke-linejoin:miter;stroke:rgb(0%,0%,0%);stroke-opacity:1;stroke-miterlimit:10;" d="M 79.823583 13.066458 C 74.863167 8.934167 72.667333 2.344583 74.163167 -3.936667 " transform="matrix(3.75,0,0,-3.75,242.8725,446.45625)"/>
<path style=" stroke:none;fill-rule:nonzero;fill:rgb(69.803922%,100%,69.803922%);fill-opacity:1;" d="M 583.035156 446.457031 L 542.210938 397.457031 C 523.609375 412.953125 515.375 437.667969 520.988281 461.222656 Z M 583.035156 446.457031 "/>
<path style=" stroke:none;fill-rule:nonzero;fill:rgb(0%,0%,0%);fill-opacity:1;" d="M 544.550781 428.234375 L 544.609375 427.765625 C 547.011719 426.828125 549.179688 424.191406 549.179688 421.378906 C 549.179688 418.566406 546.894531 416.339844 544.082031 416.339844 C 540.15625 416.339844 537.460938 418.449219 536.054688 421.496094 C 535.234375 423.253906 534.941406 426.125 534.882812 428.058594 C 534.589844 435.148438 534.707031 442.296875 534.53125 449.386719 L 535 449.972656 L 537.8125 448.742188 C 537.578125 444.054688 537.460938 439.367188 537.460938 434.621094 C 537.460938 427.707031 537.285156 425.304688 538.105469 422.023438 C 538.632812 419.738281 539.980469 418.097656 542.5 418.097656 C 544.726562 418.097656 546.25 420.148438 546.25 422.199219 C 546.25 426.183594 543.261719 428 539.980469 428 L 539.863281 429.347656 C 540.683594 429.230469 541.445312 429.230469 542.265625 429.230469 C 545.898438 429.230469 548.417969 431.398438 548.417969 435.148438 C 548.417969 437.902344 547.070312 441.652344 543.90625 441.652344 C 542.5 441.652344 541.210938 440.480469 541.210938 439.074219 C 541.210938 438.957031 541.210938 438.839844 541.210938 438.78125 L 540.742188 438.546875 L 538.925781 441.125 C 539.6875 442.472656 540.976562 443 542.441406 443 C 547.246094 443 551.582031 440.011719 551.582031 434.855469 C 551.582031 433.039062 550.820312 431.222656 549.589844 429.875 C 548.417969 428.703125 546.367188 428.292969 544.550781 428.234375 Z M 544.550781 428.234375 "/>
<path style="fill:none;stroke-width:1.19553;stroke-linecap:butt;stroke-linejoin:miter;stroke:rgb(0%,0%,0%);stroke-opacity:1;stroke-miterlimit:10;" d="M 13.191292 69.387292 C 19.057958 66.894583 25.82775 67.891458 30.725667 71.972708 " transform="matrix(3.75,0,0,-3.75,242.8725,446.45625)"/>
<path style=" stroke:none;fill-rule:nonzero;fill:rgb(69.803922%,100%,69.803922%);fill-opacity:1;" d="M 317.285156 127.558594 L 292.339844 186.253906 C 314.339844 195.601562 339.726562 191.863281 358.097656 176.558594 Z M 317.285156 127.558594 "/>
<path style=" stroke:none;fill-rule:nonzero;fill:rgb(0%,0%,0%);fill-opacity:1;" d="M 331.628906 157.089844 L 331.160156 157.265625 C 329.753906 160.839844 326.707031 166.816406 324.246094 171.328125 L 323.953125 171.210938 C 323.953125 165.761719 323.074219 157.148438 317.507812 157.148438 C 314.636719 157.148438 313.054688 158.378906 311.179688 161.308594 L 311.765625 161.71875 L 312.644531 160.722656 C 313.40625 159.84375 314.871094 159.609375 315.867188 159.609375 C 316.863281 159.609375 317.800781 160.078125 318.503906 160.78125 C 321.257812 163.476562 322.371094 173.203125 322.371094 174.667969 L 320.4375 180.820312 C 321.023438 181.347656 321.726562 181.816406 322.488281 182.050781 L 323.777344 181.113281 C 323.953125 179.179688 324.070312 177.070312 324.070312 175.136719 C 324.070312 174.84375 324.070312 174.550781 324.070312 174.257812 L 324.714844 172.675781 C 327.527344 167.636719 330.867188 163.007812 333.855469 158.085938 Z M 331.628906 157.089844 "/>
<path style="fill:none;stroke-width:1.19553;stroke-linecap:butt;stroke-linejoin:miter;stroke:rgb(0%,0%,0%);stroke-opacity:1;stroke-miterlimit:10;" d="M -35.000375 -43.999167 C -26.355583 -47.675208 -16.368083 -43.643958 -12.696208 -34.999167 C -11.274333 -31.655417 -10.961833 -27.945 -11.801417 -24.409583 " transform="matrix(3.75,0,0,-3.75,242.8725,446.45625)"/>
<path style=" stroke:none;fill-rule:nonzero;fill:rgb(100%,69.803922%,69.803922%);fill-opacity:1;" d="M 136.566406 552.757812 L 111.621094 611.457031 C 144.039062 625.238281 181.496094 610.121094 195.261719 577.707031 C 200.597656 565.167969 201.769531 551.25 198.617188 537.992188 Z M 136.566406 552.757812 "/>
<path style=" stroke:none;fill-rule:nonzero;fill:rgb(0%,0%,0%);fill-opacity:1;" d="M 161.527344 591.371094 C 159.652344 594.066406 157.484375 596.9375 155.316406 596.9375 C 152.738281 596.9375 152.09375 593.363281 152.09375 591.195312 C 152.09375 588.441406 152.972656 583.929688 156.429688 583.929688 C 159.242188 583.929688 160.238281 587.152344 161.527344 591.371094 Z M 167.328125 581.761719 L 163.8125 587.796875 L 163.460938 587.738281 C 162.875 585.6875 161.585938 581.761719 158.304688 581.761719 C 152.621094 581.761719 149.632812 587.796875 149.632812 592.953125 C 149.632812 595.53125 150.570312 599.75 153.558594 599.75 C 155.84375 599.75 158.070312 597.875 159.417969 596.234375 L 161.820312 593.304688 L 162.230469 593.363281 L 163.988281 598.402344 C 164.164062 599.339844 165.101562 600.042969 165.980469 600.042969 C 167.269531 600.042969 169.085938 598.460938 171.605469 596.46875 L 171.371094 595.707031 L 171.019531 595.707031 C 169.964844 596.46875 168.675781 597.40625 167.738281 597.40625 C 165.921875 597.40625 164.691406 592.660156 164.046875 590.433594 C 164.046875 590.375 167.503906 585.21875 169.261719 582.640625 Z M 167.328125 581.761719 "/>
<path style=" stroke:none;fill-rule:nonzero;fill:rgb(0%,0%,0%);fill-opacity:1;" d="M 178.625 573.359375 C 178.859375 572.949219 178.859375 572.714844 178.859375 572.539062 C 178.859375 571.71875 178.15625 571.132812 177.335938 571.132812 C 176.339844 571.132812 176.046875 571.953125 175.929688 572.363281 L 172.472656 583.671875 C 172.414062 583.730469 172.296875 584.023438 172.296875 584.082031 C 172.296875 584.375 173.117188 584.667969 173.351562 584.667969 C 173.527344 584.667969 173.527344 584.609375 173.703125 584.199219 Z M 178.625 573.359375 "/>
<path style="fill:none;stroke-width:1.19553;stroke-linecap:butt;stroke-linejoin:miter;stroke:rgb(0%,0%,0%);stroke-opacity:1;stroke-miterlimit:10;" d="M 74.163167 -3.936667 C 76.339208 -13.074167 85.506917 -18.717917 94.647542 -16.546042 C 97.198583 -15.936667 99.57775 -14.746042 101.593375 -13.065833 " transform="matrix(3.75,0,0,-3.75,242.8725,446.45625)"/>
<path style=" stroke:none;fill-rule:nonzero;fill:rgb(100%,69.803922%,69.803922%);fill-opacity:1;" d="M 583.035156 446.457031 L 520.988281 461.222656 C 529.144531 495.484375 563.527344 516.652344 597.800781 508.503906 C 607.367188 506.222656 616.289062 501.753906 623.847656 495.453125 Z M 583.035156 446.457031 "/>
<path style=" stroke:none;fill-rule:nonzero;fill:rgb(0%,0%,0%);fill-opacity:1;" d="M 566.226562 483.128906 L 566.285156 482.660156 C 568.6875 481.722656 570.855469 479.085938 570.855469 476.273438 C 570.855469 473.460938 568.570312 471.234375 565.757812 471.234375 C 561.832031 471.234375 559.136719 473.34375 557.730469 476.390625 C 556.910156 478.148438 556.617188 481.019531 556.558594 482.953125 C 556.265625 490.042969 556.382812 497.191406 556.207031 504.28125 L 556.675781 504.867188 L 559.488281 503.636719 C 559.253906 498.949219 559.136719 494.261719 559.136719 489.515625 C 559.136719 482.601562 558.960938 480.199219 559.78125 476.917969 C 560.308594 474.632812 561.65625 472.992188 564.175781 472.992188 C 566.402344 472.992188 567.925781 475.042969 567.925781 477.09375 C 567.925781 481.078125 564.9375 482.894531 561.65625 482.894531 L 561.539062 484.242188 C 562.359375 484.125 563.121094 484.125 563.941406 484.125 C 567.574219 484.125 570.09375 486.292969 570.09375 490.042969 C 570.09375 492.796875 568.746094 496.546875 565.582031 496.546875 C 564.175781 496.546875 562.886719 495.375 562.886719 493.96875 C 562.886719 493.851562 562.886719 493.734375 562.886719 493.675781 L 562.417969 493.441406 L 560.601562 496.019531 C 561.363281 497.367188 562.652344 497.894531 564.117188 497.894531 C 568.921875 497.894531 573.257812 494.90625 573.257812 489.75 C 573.257812 487.933594 572.496094 486.117188 571.265625 484.769531 C 570.09375 483.597656 568.042969 483.1875 566.226562 483.128906 Z M 566.226562 483.128906 "/>
<path style=" stroke:none;fill-rule:nonzero;fill:rgb(0%,0%,0%);fill-opacity:1;" d="M 584.296875 471.386719 C 584.53125 470.976562 584.53125 470.742188 584.53125 470.566406 C 584.53125 469.746094 583.828125 469.160156 583.007812 469.160156 C 582.011719 469.160156 581.71875 469.980469 581.601562 470.390625 L 578.144531 481.699219 C 578.085938 481.757812 577.96875 482.050781 577.96875 482.109375 C 577.96875 482.402344 578.789062 482.695312 579.023438 482.695312 C 579.199219 482.695312 579.199219 482.636719 579.375 482.226562 Z M 584.296875 471.386719 "/>
<path style="fill:none;stroke-width:1.19553;stroke-linecap:butt;stroke-linejoin:miter;stroke:rgb(0%,0%,0%);stroke-opacity:1;stroke-miterlimit:10;" d="M 30.725667 71.972708 C 37.944417 77.985208 38.9215 88.707083 32.910042 95.925833 C 31.178792 98.000833 28.979833 99.637292 26.495458 100.691458 " transform="matrix(3.75,0,0,-3.75,242.8725,446.45625)"/>
<path style=" stroke:none;fill-rule:nonzero;fill:rgb(100%,69.803922%,69.803922%);fill-opacity:1;" d="M 317.285156 127.558594 L 358.097656 176.558594 C 385.167969 154.011719 388.828125 113.804688 366.285156 86.734375 C 359.792969 78.957031 351.546875 72.816406 342.230469 68.863281 Z M 317.285156 127.558594 "/>
<path style=" stroke:none;fill-rule:nonzero;fill:rgb(0%,0%,0%);fill-opacity:1;" d="M 362.25 114.292969 L 361.78125 114.46875 C 360.375 118.042969 357.328125 124.019531 354.867188 128.53125 L 354.574219 128.414062 C 354.574219 122.964844 353.695312 114.351562 348.128906 114.351562 C 345.257812 114.351562 343.675781 115.582031 341.800781 118.511719 L 342.386719 118.921875 L 343.265625 117.925781 C 344.027344 117.046875 345.492188 116.8125 346.488281 116.8125 C 347.484375 116.8125 348.421875 117.28125 349.125 117.984375 C 351.878906 120.679688 352.992188 130.40625 352.992188 131.871094 L 351.058594 138.023438 C 351.644531 138.550781 352.347656 139.019531 353.109375 139.253906 L 354.398438 138.316406 C 354.574219 136.382812 354.691406 134.273438 354.691406 132.339844 C 354.691406 132.046875 354.691406 131.753906 354.691406 131.460938 L 355.335938 129.878906 C 358.148438 124.839844 361.488281 120.210938 364.476562 115.289062 Z M 362.25 114.292969 "/>
<path style=" stroke:none;fill-rule:nonzero;fill:rgb(0%,0%,0%);fill-opacity:1;" d="M 373.03125 105.949219 C 373.265625 105.539062 373.265625 105.304688 373.265625 105.128906 C 373.265625 104.308594 372.5625 103.722656 371.742188 103.722656 C 370.746094 103.722656 370.453125 104.542969 370.335938 104.953125 L 366.878906 116.261719 C 366.820312 116.320312 366.703125 116.613281 366.703125 116.671875 C 366.703125 116.964844 367.523438 117.257812 367.757812 117.257812 C 367.933594 117.257812 367.933594 117.199219 368.109375 116.789062 Z M 373.03125 105.949219 "/>
<path style="fill:none;stroke-width:0.59776;stroke-linecap:butt;stroke-linejoin:miter;stroke:rgb(0%,0%,0%);stroke-opacity:1;stroke-miterlimit:10;" d="M -52.156625 -34.014792 L 114.519417 5.668542 " transform="matrix(3.75,0,0,-3.75,242.8725,446.45625)"/>
<path style="fill:none;stroke-width:0.59776;stroke-linecap:butt;stroke-linejoin:miter;stroke:rgb(0%,0%,0%);stroke-opacity:1;stroke-miterlimit:10;" d="M 104.881917 -17.0075 L 5.667333 102.047708 " transform="matrix(3.75,0,0,-3.75,242.8725,446.45625)"/>
<path style="fill:none;stroke-width:0.59776;stroke-linecap:butt;stroke-linejoin:miter;stroke:rgb(0%,0%,0%);stroke-opacity:1;stroke-miterlimit:10;" d="M 29.479833 107.719583 L -37.98475 -51.023125 " transform="matrix(3.75,0,0,-3.75,242.8725,446.45625)"/>
<path style="fill-rule:nonzero;fill:rgb(50.196078%,50.196078%,50.196078%);fill-opacity:1;stroke-width:1.19553;stroke-linecap:butt;stroke-linejoin:miter;stroke:rgb(0%,0%,0%);stroke-opacity:1;stroke-miterlimit:10;" d="M -27.750375 -28.347083 C -27.750375 -28.014792 -28.016 -27.749167 -28.348292 -27.749167 C -28.676417 -27.749167 -28.946208 -28.014792 -28.946208 -28.347083 C -28.946208 -28.675208 -28.676417 -28.945 -28.348292 -28.945 C -28.016 -28.945 -27.750375 -28.675208 -27.750375 -28.347083 Z M -27.750375 -28.347083 " transform="matrix(3.75,0,0,-3.75,242.8725,446.45625)"/>
<path style="fill-rule:nonzero;fill:rgb(50.196078%,50.196078%,50.196078%);fill-opacity:1;stroke-width:1.19553;stroke-linecap:butt;stroke-linejoin:miter;stroke:rgb(0%,0%,0%);stroke-opacity:1;stroke-miterlimit:10;" d="M 91.307958 0.000833333 C 91.307958 0.328958 91.038167 0.597708 90.710042 0.597708 C 90.378792 0.597708 90.113167 0.328958 90.113167 0.000833333 C 90.113167 -0.331458 90.378792 -0.597083 90.710042 -0.597083 C 91.038167 -0.597083 91.307958 -0.331458 91.307958 0.000833333 Z M 91.307958 0.000833333 " transform="matrix(3.75,0,0,-3.75,242.8725,446.45625)"/>
<path style="fill-rule:nonzero;fill:rgb(50.196078%,50.196078%,50.196078%);fill-opacity:1;stroke-width:1.19553;stroke-linecap:butt;stroke-linejoin:miter;stroke:rgb(0%,0%,0%);stroke-opacity:1;stroke-miterlimit:10;" d="M 20.441292 85.039375 C 20.441292 85.371667 20.1715 85.637292 19.843375 85.637292 C 19.511083 85.637292 19.245458 85.371667 19.245458 85.039375 C 19.245458 84.71125 19.511083 84.441458 19.843375 84.441458 C 20.1715 84.441458 20.441292 84.71125 20.441292 85.039375 Z M 20.441292 85.039375 " transform="matrix(3.75,0,0,-3.75,242.8725,446.45625)"/>
</g>
</svg>
